<?xml version="1.0" encoding="UTF-8" standalone="no"?>
<!-- Created with Inkscape (http://www.inkscape.org/) -->

<svg
   width="136.08365mm"
   height="15.772301mm"
   viewBox="0 0 136.08365 15.772301"
   version="1.1"
   id="svg4284"
   xmlns="http://www.w3.org/2000/svg"
   xmlns:svg="http://www.w3.org/2000/svg">
  <defs
     id="defs4281">
    <marker
       style="overflow:visible"
       id="Dot"
       refX="0"
       refY="0"
       orient="auto"
       markerWidth="2.667"
       markerHeight="2.667"
       viewBox="0 0 5.6666667 5.6666667"
       preserveAspectRatio="xMidYMid">
      <path
         transform="scale(0.5)"
         style="fill:context-stroke;fill-rule:evenodd;stroke:context-stroke;stroke-width:1pt"
         d="M 5,0 C 5,2.76 2.76,5 0,5 -2.76,5 -5,2.76 -5,0 c 0,-2.76 2.3,-5 5,-5 2.76,0 5,2.24 5,5 z"
         id="Dot1" />
    </marker>
    <clipPath
       clipPathUnits="userSpaceOnUse"
       id="clipPath33970-0">
      <ellipse
         style="fill:#000000;fill-opacity:1;stroke:none;stroke-width:0.19232;stroke-dasharray:none;stroke-dashoffset:0;stroke-opacity:1;paint-order:fill markers stroke"
         id="ellipse33972-0"
         cx="90.113319"
         cy="122.25159"
         rx="2.2392318"
         ry="2.0474508" />
    </clipPath>
    <filter
       style="color-interpolation-filters:sRGB"
       id="filter33948-8"
       x="-0.52836498"
       y="-0.57689741"
       width="2.05673"
       height="2.1537948">
      <feGaussianBlur
         stdDeviation="0.93174938"
         id="feGaussianBlur33950-3" />
    </filter>
    <clipPath
       clipPathUnits="userSpaceOnUse"
       id="clipPath33978-1">
      <ellipse
         style="fill:#000000;fill-opacity:1;stroke:none;stroke-width:0.19232;stroke-dasharray:none;stroke-dashoffset:0;stroke-opacity:1;paint-order:fill markers stroke"
         id="ellipse33980-1"
         cx="90.113319"
         cy="122.25159"
         rx="2.2392318"
         ry="2.0474508" />
    </clipPath>
    <clipPath
       clipPathUnits="userSpaceOnUse"
       id="clipPath33974-8">
      <ellipse
         style="fill:#000000;fill-opacity:1;stroke:none;stroke-width:0.232607;stroke-dasharray:none;stroke-dashoffset:0;stroke-opacity:1;paint-order:fill markers stroke"
         id="ellipse33976-1"
         cx="89.988129"
         cy="122.74916"
         rx="2.6569333"
         ry="2.5242186" />
    </clipPath>
    <filter
       style="color-interpolation-filters:sRGB"
       id="filter33944-1"
       x="-1.1487082"
       y="-1.2563056"
       width="3.2974163"
       height="3.5126111">
      <feGaussianBlur
         stdDeviation="0.75128116"
         id="feGaussianBlur33946-5" />
    </filter>
    <clipPath
       clipPathUnits="userSpaceOnUse"
       id="clipPath33966-7">
      <ellipse
         style="fill:#000000;fill-opacity:1;stroke:none;stroke-width:0.19232;stroke-dasharray:none;stroke-dashoffset:0;stroke-opacity:1;paint-order:fill markers stroke"
         id="ellipse33968-0"
         cx="90.113319"
         cy="122.25159"
         rx="2.2392318"
         ry="2.0474508" />
    </clipPath>
    <filter
       style="color-interpolation-filters:sRGB"
       id="filter33952-1"
       x="-0.52483858"
       y="-0.56610781"
       width="2.0496772"
       height="2.1322156">
      <feGaussianBlur
         stdDeviation="0.83399475"
         id="feGaussianBlur33954-3" />
    </filter>
    <clipPath
       clipPathUnits="userSpaceOnUse"
       id="clipPath33962-4">
      <ellipse
         style="fill:#000000;fill-opacity:1;stroke:none;stroke-width:0.117674;stroke-dasharray:none;stroke-dashoffset:0;stroke-opacity:1;paint-order:fill markers stroke"
         id="ellipse33964-3"
         cx="88.982224"
         cy="123.25385"
         rx="1.348069"
         ry="1.2732472" />
    </clipPath>
    <filter
       style="color-interpolation-filters:sRGB"
       id="filter33956-7"
       x="-0.20569445"
       y="-0.22618874"
       width="1.4113889"
       height="1.4523775">
      <feGaussianBlur
         stdDeviation="0.2512561"
         id="feGaussianBlur33958-7" />
    </filter>
  </defs>
  <g
     id="layer1"
     transform="translate(-36.332613,-100.83848)">
    <g
       aria-label="lowdesigns"
       id="text4770"
       style="font-size:19.7556px;font-family:'Electronica Display Solid';-inkscape-font-specification:'Electronica Display Solid';stroke:#000000;stroke-width:0.600001;paint-order:stroke markers fill">
      <g
         id="path9622" />
      <g
         id="path9624">
        <path
           style="color:#000000;-inkscape-font-specification:'Electronica Display Solid';fill:none;stroke:none;stroke-width:0.6;-inkscape-stroke:none"
           d="m 54.096526,101.37555 c -4.069653,0 -7.349083,3.29918 -7.349083,7.34908 0,4.06965 3.27943,7.34908 7.349083,7.34908 4.049898,0 7.349084,-3.27943 7.349084,-7.34908 0,-4.0499 -3.299186,-7.34908 -7.349084,-7.34908 z m 0,11.26069 c -2.15336,0 -3.911608,-1.75825 -3.911608,-3.91161 0,-2.15336 1.758248,-3.91161 3.911608,-3.91161 2.153361,0 3.911609,1.75825 3.911609,3.91161 0,2.15336 -1.758248,3.91161 -3.911609,3.91161 z"
           id="path9753" />
      </g>
      <g
         id="path9626">
        <path
           style="color:#000000;-inkscape-font-specification:'Electronica Display Solid';fill:none;stroke:none;stroke-width:0.6;-inkscape-stroke:none"
           d="m 80.964086,101.61262 h -3.931365 l -2.943584,6.30203 -1.126069,-2.39043 1.83727,-3.9116 h -3.931364 l -2.943584,6.30203 -2.943585,-6.30203 h -3.931364 l 6.874949,14.69816 3.081873,-6.57861 3.081874,6.57861 z"
           id="path9765" />
      </g>
      <g
         id="path9628">
        <path
           style="color:#000000;-inkscape-font-specification:'Electronica Display Solid';fill:#000000;stroke:none;-inkscape-stroke:none"
           d="m 82.244141,101.3125 v 14.82422 h 5.871093 c 2.282503,0 4.148888,-0.6899 5.435547,-1.97656 1.286659,-1.28666 1.976563,-3.15305 1.976563,-5.43555 0,-2.2825 -0.689904,-4.14889 -1.976563,-5.43555 -1.286659,-1.28665 -3.153044,-1.97656 -5.435547,-1.97656 z m 0.599609,0.59961 h 5.271484 c 2.162503,0 3.853625,0.64464 5.011719,1.80273 1.158094,1.1581 1.800781,2.84727 1.800781,5.00977 0,2.1625 -0.642687,3.85362 -1.800781,5.01172 -1.158094,1.15809 -2.849216,1.80078 -5.011719,1.80078 H 82.84375 Z m 3.193359,2.48242 v 8.66016 h 2.078125 c 1.134394,0 2.069337,-0.39854 2.691407,-1.1543 0.62207,-0.75576 0.927734,-1.83599 0.927734,-3.17578 0,-1.33979 -0.305664,-2.42002 -0.927734,-3.17578 -0.62207,-0.75576 -1.557013,-1.1543 -2.691407,-1.1543 z m 0.59961,0.59961 h 1.478515 c 0.999209,0 1.724518,0.32323 2.228516,0.93555 0.503998,0.61231 0.791016,1.54673 0.791016,2.79492 0,1.24819 -0.287018,2.18261 -0.791016,2.79492 -0.503998,0.61231 -1.229307,0.93555 -2.228516,0.93555 h -1.478515 z"
           id="path9769" />
        <path
           style="color:#000000;-inkscape-font-specification:'Electronica Display Solid';fill:none;stroke:none;stroke-width:0.6;-inkscape-stroke:none"
           d="m 88.11558,101.61262 h -5.571079 v 14.22403 h 5.571079 c 4.44501,0 7.112016,-2.66701 7.112016,-7.11202 0,-4.44501 -2.667006,-7.11201 -7.112016,-7.11201 z m 0,11.14215 h -1.778004 v -8.06028 h 1.778004 c 2.133605,0 3.318941,1.44216 3.318941,4.03014 0,2.58798 -1.185336,4.03014 -3.318941,4.03014 z"
           id="path9771" />
      </g>
      <g
         id="path9630">
        <path
           style="color:#000000;-inkscape-font-specification:'Electronica Display Solid';fill:#000000;stroke:none;-inkscape-stroke:none"
           d="m 96.507812,101.3125 v 14.82422 h 11.267578 v -3.68164 h -6.875 v -1.88867 h 5.45313 v -3.6836 h -5.45313 v -1.88867 h 4.03125 v -3.68164 z m 0.59961,0.59961 h 7.224608 v 2.48242 h -4.03125 v 3.08985 h 5.45313 v 2.48046 h -5.45313 v 3.08985 h 0.30078 6.57422 v 2.48242 H 97.107422 Z"
           id="path9775" />
        <path
           style="color:#000000;-inkscape-font-specification:'Electronica Display Solid';fill:none;stroke:none;stroke-width:0.6;-inkscape-stroke:none"
           d="m 100.60109,112.75477 v -2.4892 h 5.45254 v -3.08188 h -5.45254 v -2.4892 h 4.03014 v -3.08187 h -7.823217 v 14.22403 h 10.668027 v -3.08188 z"
           id="path9777" />
      </g>
      <g
         id="path9632">
        <path
           style="color:#000000;-inkscape-font-specification:'Electronica Display Solid';fill:#000000;stroke:none;-inkscape-stroke:none"
           d="m 114.70703,101.07617 c -1.9489,0 -3.49862,0.40973 -4.57617,1.23047 -1.07755,0.82074 -1.65039,2.05683 -1.65039,3.57227 0,1.52244 0.56203,2.54477 1.39648,3.17968 0.83446,0.63492 1.90363,0.89898 2.94336,1.07227 1.03974,0.17329 2.06065,0.25545 2.7793,0.45508 0.35933,0.0998 0.63728,0.22941 0.80664,0.38281 0.16936,0.1534 0.25195,0.31784 0.25195,0.60156 0,0.31725 -0.1232,0.52177 -0.43554,0.70313 -0.31235,0.18136 -0.82743,0.30078 -1.51563,0.30078 -0.68272,0 -1.18779,-0.13548 -1.49805,-0.34766 -0.31025,-0.21217 -0.45507,-0.48264 -0.45507,-0.89453 v -0.29883 h -4.39258 v 0.29883 c 0,1.59196 0.58055,2.88617 1.67773,3.74805 1.09718,0.86188 2.67839,1.29297 4.66797,1.29297 1.97737,0 3.55228,-0.40359 4.65235,-1.22071 1.10006,-0.81711 1.69335,-2.05516 1.69335,-3.58203 0,-1.52244 -0.56203,-2.54477 -1.39648,-3.17968 -0.83445,-0.63492 -1.90557,-0.89898 -2.94531,-1.07227 -1.03974,-0.17329 -2.06065,-0.25545 -2.7793,-0.45508 -0.35933,-0.0998 -0.63728,-0.22941 -0.80664,-0.38281 -0.16936,-0.1534 -0.25195,-0.31784 -0.25195,-0.60156 0,-0.32201 0.1202,-0.52832 0.41211,-0.70703 0.2919,-0.17872 0.77508,-0.29688 1.42187,-0.29688 0.64099,0 1.11176,0.13422 1.40235,0.34375 0.29058,0.20953 0.43164,0.48255 0.43164,0.89844 v 0.29883 h 4.39257 v -0.29883 c 0,-1.59066 -0.56932,-2.88331 -1.64648,-3.7461 -1.07716,-0.86279 -2.62911,-1.29492 -4.58008,-1.29492 z m 0,0.59961 c 1.86185,0 3.27211,0.41677 4.20508,1.16406 0.85923,0.68823 1.29443,1.6937 1.36523,2.97657 h -3.28515 c -0.0813,-0.41841 -0.1905,-0.83827 -0.53125,-1.08399 -0.43544,-0.31398 -1.03177,-0.45703 -1.75391,-0.45703 -0.71635,0 -1.30026,0.11899 -1.73437,0.38477 -0.43411,0.26578 -0.69922,0.71102 -0.69922,1.21875 0,0.42747 0.17129,0.79513 0.44922,1.04687 0.27792,0.25174 0.64139,0.40245 1.04882,0.51563 0.81488,0.22635 1.83684,0.30125 2.8418,0.46875 1.00497,0.16749 1.98062,0.42708 2.67969,0.95898 0.69907,0.5319 1.1582,1.31954 1.1582,2.70117 0,1.37721 -0.4947,2.39061 -1.44922,3.09961 -0.95452,0.70901 -2.4002,1.10352 -4.29492,1.10352 -1.90227,0 -3.34441,-0.41782 -4.29687,-1.16602 -0.87714,-0.68903 -1.31861,-1.69303 -1.39063,-2.97461 h 3.28906 c 0.086,0.42179 0.20571,0.84389 0.5625,1.08789 0.45528,0.31135 1.07651,0.45313 1.83594,0.45313 0.75395,0 1.36322,-0.11967 1.81641,-0.38281 0.45318,-0.26315 0.73437,-0.70822 0.73437,-1.22071 0,-0.42747 -0.17129,-0.79513 -0.44922,-1.04687 -0.27792,-0.25174 -0.63943,-0.40245 -1.04687,-0.51563 -0.81487,-0.22635 -1.83879,-0.30125 -2.84375,-0.46875 -1.00496,-0.16749 -1.97866,-0.42708 -2.67774,-0.95898 -0.69907,-0.53191 -1.16015,-1.31955 -1.16015,-2.70117 0,-1.36887 0.48344,-2.38344 1.41601,-3.09375 0.93258,-0.71032 2.34701,-1.10938 4.21094,-1.10938 z"
           id="path9781" />
        <path
           style="color:#000000;-inkscape-font-specification:'Electronica Display Solid';fill:none;stroke:none;stroke-width:0.6;-inkscape-stroke:none"
           d="m 112.57296,105.87982 c 0,-0.82973 0.77047,-1.30386 2.13361,-1.30386 1.36313,0 2.1336,0.55315 2.1336,1.54093 h 3.79308 c 0,-3.04236 -2.11385,-4.74134 -5.92668,-4.74134 -3.81284,0 -5.92668,1.61996 -5.92668,4.50427 0,5.80815 8.17881,2.84481 8.17881,5.68962 0,0.82973 -0.80998,1.30387 -2.25213,1.30387 -1.44216,0 -2.25214,-0.55316 -2.25214,-1.54094 h -3.79308 c 0,3.04236 2.15336,4.74134 6.04522,4.74134 3.87209,0 6.04521,-1.6002 6.04521,-4.50427 0,-5.80815 -8.17882,-2.84481 -8.17882,-5.68962 z"
           id="path9783" />
      </g>
      <g
         id="path9634" />
      <g
         id="path9636">
        <path
           style="color:#000000;-inkscape-font-specification:'Electronica Display Solid';fill:#000000;stroke:none;-inkscape-stroke:none"
           d="m 137.50391,101.07617 c -4.23179,0 -7.64844,3.43659 -7.64844,7.64844 0,4.23081 3.41763,7.64844 7.64844,7.64844 4.0982,0 7.41211,-3.42248 7.41211,-7.64844 0,-0.38591 -0.019,-0.77761 -0.082,-1.15625 l -0.043,-0.25 h -0.25391 -7.57031 v 3.20703 h 3.34375 c -0.59536,1.04961 -1.59238,1.81055 -2.80664,1.81055 -1.99006,0 -3.61133,-1.62128 -3.61133,-3.61133 0,-1.99006 1.62127,-3.61133 3.61133,-3.61133 1.1706,0 2.20533,0.54525 2.86132,1.41992 l 0.1836,0.24414 3.20312,-2.46093 -0.18164,-0.23828 c -1.39804,-1.82979 -3.60073,-3.00196 -6.0664,-3.00196 z m 0,0.59961 c 2.16556,0 4.06236,1.02217 5.35546,2.57031 l -2.25195,1.72852 c -0.76949,-0.87857 -1.85701,-1.46094 -3.10351,-1.46094 -2.31666,0 -4.21094,1.89428 -4.21094,4.21094 0,2.31666 1.89428,4.21094 4.21094,4.21094 1.65104,0 3.08298,-1.07222 3.67773,-2.60157 l 0.16016,-0.4082 h -3.77344 v -2.00781 h 6.69141 c 0.03,0.26273 0.0566,0.52814 0.0566,0.80664 0,3.91333 -3.04797,7.04883 -6.8125,7.04883 -3.90848,0 -7.04883,-3.14035 -7.04883,-7.04883 0,-3.88795 3.14132,-7.04883 7.04883,-7.04883 z"
           id="path9793" />
        <path
           style="color:#000000;-inkscape-font-specification:'Electronica Display Solid';fill:none;stroke:none;stroke-width:0.6;-inkscape-stroke:none"
           d="m 144.53748,107.61832 h -7.27006 v 2.60774 h 3.63503 c -0.55316,1.4224 -1.87679,2.41018 -3.39797,2.41018 -2.15336,0 -3.91161,-1.75825 -3.91161,-3.91161 0,-2.15336 1.75825,-3.91161 3.91161,-3.91161 1.26436,0 2.39043,0.59267 3.10163,1.54094 l 2.72628,-2.09409 c -1.34339,-1.75825 -3.45723,-2.88432 -5.82791,-2.88432 -4.06965,0 -7.34908,3.29918 -7.34908,7.34908 0,4.06965 3.27943,7.34908 7.34908,7.34908 3.93137,0 7.11202,-3.27943 7.11202,-7.34908 0,-0.37536 -0.0198,-0.75071 -0.079,-1.10631 z"
           id="path9795" />
      </g>
      <g
         id="path9638">
        <path
           style="color:#000000;-inkscape-font-specification:'Electronica Display Solid';fill:#000000;stroke:none;-inkscape-stroke:none"
           d="m 145.89648,100.45117 v 15.68555 h 4.39258 v -6.60742 l 8.06055,7.46875 V 101.3125 h -4.39258 v 0.30078 6.30664 z m 0.59961,1.375 8.06055,7.4668 v -7.38086 H 157.75 v 13.71094 l -8.06055,-7.4668 v 7.38086 h -3.19336 z"
           id="path9799" />
        <path
           style="color:#000000;-inkscape-font-specification:'Electronica Display Solid';fill:none;stroke:none;stroke-width:0.6;-inkscape-stroke:none"
           d="m 154.25722,101.61262 v 6.99348 l -8.06028,-7.46762 v 14.69817 h 3.79307 v -6.99349 l 8.06029,7.46762 v -14.69816 z"
           id="path9801" />
      </g>
      <g
         id="path9640">
        <path
           style="color:#000000;-inkscape-font-specification:'Electronica Display Solid';fill:#000000;stroke:none;-inkscape-stroke:none"
           d="m 166.07031,101.07617 c -1.9489,0 -3.49666,0.40973 -4.57422,1.23047 -1.07755,0.82074 -1.65234,2.05682 -1.65234,3.57227 0,1.52244 0.56203,2.54477 1.39648,3.17968 0.83446,0.63492 1.90363,0.89898 2.94336,1.07227 1.03974,0.17329 2.0626,0.25545 2.78125,0.45508 0.35933,0.0998 0.63533,0.22941 0.80469,0.38281 0.16936,0.1534 0.25391,0.31784 0.25391,0.60156 0,0.31725 -0.12321,0.52177 -0.43555,0.70313 -0.31234,0.18136 -0.82938,0.30078 -1.51758,0.30078 -0.68272,0 -1.18584,-0.13548 -1.49609,-0.34766 -0.31025,-0.21217 -0.45508,-0.48264 -0.45508,-0.89453 v -0.29883 h -4.39258 v 0.29883 c 0,1.59196 0.58056,2.88617 1.67774,3.74805 1.09718,0.86188 2.67643,1.29297 4.66601,1.29297 1.97738,0 3.55424,-0.40359 4.6543,-1.22071 1.10006,-0.81711 1.69141,-2.05516 1.69141,-3.58203 0,-1.52244 -0.56203,-2.54477 -1.39649,-3.17968 -0.83445,-0.63492 -1.90362,-0.89898 -2.94336,-1.07227 -1.03974,-0.17329 -2.06259,-0.25545 -2.78125,-0.45508 -0.35932,-0.0998 -0.63533,-0.22941 -0.80469,-0.38281 -0.16935,-0.1534 -0.25195,-0.31784 -0.25195,-0.60156 0,-0.32201 0.1202,-0.52832 0.41211,-0.70703 0.29191,-0.17872 0.77314,-0.29688 1.41992,-0.29688 0.64099,0 1.11176,0.13422 1.40235,0.34375 0.29058,0.20953 0.43164,0.48255 0.43164,0.89844 v 0.29883 h 4.39257 v -0.29883 c 0,-1.59066 -0.56736,-2.88331 -1.64453,-3.7461 -1.07716,-0.86279 -2.63105,-1.29492 -4.58203,-1.29492 z m 0,0.59961 c 1.86186,0 3.27407,0.41677 4.20703,1.16406 0.85922,0.68822 1.29247,1.69373 1.36328,2.97657 h -3.28515 c -0.0813,-0.41841 -0.1905,-0.83828 -0.53125,-1.08399 -0.43544,-0.31398 -1.03176,-0.45703 -1.75391,-0.45703 -0.71634,0 -1.30026,0.11899 -1.73437,0.38477 -0.43411,0.26578 -0.69922,0.71102 -0.69922,1.21875 0,0.42747 0.17325,0.79513 0.45117,1.04687 0.27792,0.25174 0.63944,0.40245 1.04688,0.51563 0.81487,0.22635 1.83878,0.30125 2.84375,0.46875 1.00496,0.16749 1.97866,0.42708 2.67773,0.95898 0.69907,0.5319 1.16016,1.31954 1.16016,2.70117 0,1.37721 -0.4947,2.39061 -1.44922,3.09961 -0.95452,0.70901 -2.40216,1.10352 -4.29688,1.10352 -1.90227,0 -3.34441,-0.41782 -4.29687,-1.16602 -0.87714,-0.68903 -1.31665,-1.69303 -1.38867,-2.97461 h 3.28906 c 0.086,0.42171 0.20381,0.84393 0.56054,1.08789 0.45528,0.31135 1.07651,0.45313 1.83594,0.45313 0.75396,0 1.36518,-0.11967 1.81836,-0.38281 0.45319,-0.26315 0.73438,-0.70822 0.73438,-1.22071 0,-0.42747 -0.1713,-0.79513 -0.44922,-1.04687 -0.27792,-0.25174 -0.64139,-0.40245 -1.04883,-0.51563 -0.81487,-0.22635 -1.83683,-0.30125 -2.8418,-0.46875 -1.00496,-0.16749 -1.98061,-0.42708 -2.67968,-0.95898 -0.69908,-0.53191 -1.15821,-1.31955 -1.15821,-2.70117 0,-1.36887 0.48149,-2.38344 1.41406,-3.09375 0.93258,-0.71032 2.34702,-1.10938 4.21094,-1.10938 z"
           id="path9805" />
        <path
           style="color:#000000;-inkscape-font-specification:'Electronica Display Solid';fill:none;stroke:none;stroke-width:0.6;-inkscape-stroke:none"
           d="m 163.93745,105.87982 c 0,-0.82973 0.77047,-1.30386 2.1336,-1.30386 1.36314,0 2.13361,0.55315 2.13361,1.54093 h 3.79307 c 0,-3.04236 -2.11385,-4.74134 -5.92668,-4.74134 -3.81283,0 -5.92668,1.61996 -5.92668,4.50427 0,5.80815 8.17882,2.84481 8.17882,5.68962 0,0.82973 -0.80998,1.30387 -2.25214,1.30387 -1.44216,0 -2.25214,-0.55316 -2.25214,-1.54094 h -3.79307 c 0,3.04236 2.15336,4.74134 6.04521,4.74134 3.8721,0 6.04522,-1.6002 6.04522,-4.50427 0,-5.80815 -8.17882,-2.84481 -8.17882,-5.68962 z"
           id="path9807" />
      </g>
    </g>
  </g>
  <g
     id="g40307"
     transform="matrix(-0.41011457,0,0,0.4239742,131.01583,-69.771963)"
     style="stroke-width:0.7602159;stroke-dasharray:none">
    <path
       style="fill:none;stroke:#000000;stroke-width:1.71947886;stroke-dasharray:none;stroke-dashoffset:0;marker-start:url(#Dot);paint-order:stroke markers fill"
       id="path2532"
       d="m 114.82255,151.82938 a 13.146145,13.268073 0 0 1 -10.98966,10.1507 13.146145,13.268073 0 0 1 -13.324674,-6.72343 13.146145,13.268073 0 0 1 1.450895,-14.96381 13.146145,13.268073 0 0 1 14.363329,-3.98876" />
    <path
       style="fill:none;stroke:#000000;stroke-width:0.52040016;stroke-dasharray:none;paint-order:stroke markers fill"
       id="path2581"
       d="m 109.93556,157.02257 a 10.467503,10.469042 0 0 1 -14.614015,0.12109 10.467503,10.469042 0 0 1 -0.491352,-14.60841 10.467503,10.469042 0 0 1 14.589117,-0.86145" />
    <path
       style="fill:none;stroke:#000000;stroke-width:0.52040016;stroke-dasharray:none;stroke-dashoffset:0;paint-order:stroke markers fill"
       id="path2583"
       d="m 105.70164,156.77455 a 7.8299766,7.8601069 0 0 1 -8.844931,-1.79823 7.8299766,7.8601069 0 0 1 -1.282854,-8.96723 7.8299766,7.8601069 0 0 1 7.983355,-4.22425" />
    <path
       style="fill:none;stroke:#000000;stroke-width:0.52040016;stroke-dasharray:none;paint-order:stroke markers fill"
       id="path2587"
       d="m 100.05814,153.29919 a 4.3971648,4.460681 0 0 1 -1.580895,-5.35749 4.3971648,4.460681 0 0 1 4.820235,-2.71364" />
    <g
       id="g34969"
       transform="matrix(0.22159404,0,0,0.22159404,81.103332,121.15184)"
       style="stroke-width:3.43066944;stroke-dasharray:none">
      <path
         id="path23120-2"
         style="mix-blend-mode:normal;fill:#333333;fill-opacity:1;stroke:none;stroke-width:0.85709165;stroke-dasharray:none;stroke-dashoffset:0;stroke-opacity:1;paint-order:fill markers stroke;filter:url(#filter33948-8)"
         d="m 89.286018,120.3495 c -0.618385,0.22506 -1.095231,0.68997 -1.301212,1.26866 l 2.717146,2.60759 c 0.701832,-0.17515 1.266857,-0.65115 1.515153,-1.2764 -1.231986,-0.56917 -2.324161,-1.30144 -2.931087,-2.59985 z"
         clip-path="url(#clipPath33970-0)"
         transform="matrix(3.9339461,0,0,4.0726287,-257.81783,-369.34268)" />
      <g
         id="g56821"
         transform="matrix(1.0155554,0,0,1,-1.3669161,0)"
         style="stroke-width:3.40429404;stroke-dasharray:none">
        <g
           id="g56848"
           transform="matrix(1,0,0,1.0184223,0,-2.5216598)"
           style="stroke-width:3.37336329;stroke-dasharray:none">
          <ellipse
             style="fill:#000000;fill-opacity:1;stroke:none;stroke-width:0.84277473;stroke-dasharray:none;stroke-dashoffset:0;stroke-opacity:1;paint-order:fill markers stroke"
             id="path20650-5"
             cx="90.113319"
             cy="122.25159"
             rx="2.2392318"
             ry="2.0474508"
             clip-path="url(#clipPath33978-1)"
             transform="matrix(3.9339461,0,0,4.0726287,-257.81783,-369.34268)" />
          <ellipse
             style="mix-blend-mode:normal;fill:#ffffff;fill-opacity:1;stroke:none;stroke-width:1.01931646;stroke-dasharray:none;stroke-dashoffset:0;stroke-opacity:1;paint-order:fill markers stroke;filter:url(#filter33944-1)"
             id="ellipse20766-1"
             cx="90.949638"
             cy="121.44382"
             rx="0.78482717"
             ry="0.71760994"
             transform="matrix(3.3154833,0,0,3.3034011,-201.67101,-276.94706)"
             clip-path="url(#clipPath33974-8)" />
          <path
             id="path23191-6"
             style="mix-blend-mode:normal;fill:#1a1a1a;fill-opacity:1;stroke:none;stroke-width:0.84277473;stroke-dasharray:none;stroke-dashoffset:0;stroke-opacity:1;paint-order:fill markers stroke;filter:url(#filter33952-1)"
             d="m 88.577534,120.7624 c -0.414365,0.35763 -0.664034,0.84625 -0.698148,1.36632 l 2.264461,2.16938 c 0.58168,-0.008 1.137311,-0.2218 1.549259,-0.59738 -1.320677,-0.65496 -2.489234,-1.48487 -3.115572,-2.93832 z"
             clip-path="url(#clipPath33966-7)"
             transform="matrix(3.9339461,0,0,4.0726287,-257.81783,-369.34268)" />
          <path
             id="path23316-6"
             style="mix-blend-mode:normal;fill:#000000;fill-opacity:1;stroke:none;stroke-width:0.51566499;stroke-dasharray:none;stroke-dashoffset:0;stroke-opacity:1;paint-order:fill markers stroke;filter:url(#filter33956-7)"
             d="m 87.979121,121.63315 c -0.06944,0.20005 -0.104817,0.40868 -0.104903,0.61856 1.9e-5,1.13074 1.002495,2.04738 2.23914,2.04742 0.235207,-2.9e-4 0.468893,-0.0345 0.692464,-0.10128 -1.333325,-0.51868 -2.237012,-1.40729 -2.826701,-2.5647 z"
             transform="matrix(6.5345453,0,0,6.5490085,-484.77527,-678.64784)"
             clip-path="url(#clipPath33962-4)" />
        </g>
      </g>
    </g>
  </g>
  <g
     aria-label="LOW"
     id="text2007"
     style="font-size:14.1111px;font-family:'Electronica Display Solid';-inkscape-font-specification:'Electronica Display Solid';fill:none;stroke:#000000;stroke-width:0.616;stroke-opacity:1;paint-order:stroke markers fill"
     transform="translate(-1.1982333,-2.1639385)" />
  <g
     aria-label="i"
     id="text3250"
     style="font-size:14.1111px;font-family:'Adobe Gothic Std';-inkscape-font-specification:'Adobe Gothic Std';fill:none;stroke:#000000;stroke-width:0.616;paint-order:stroke markers fill"
     transform="matrix(1.4394253,0,0,2.3557247,17.900595,126.41783)">
    <path
       d="m 48.570444,-52.839051 v 7.859883 h 2.088443 v -7.859883 z"
       id="path3273" />
  </g>
  <text
     xml:space="preserve"
     style="font-style:normal;font-variant:normal;font-weight:normal;font-stretch:normal;font-size:14.1111px;font-family:'Adobe Gothic Std';-inkscape-font-specification:'Adobe Gothic Std';fill:#000000;fill-opacity:1;stroke:#000000;stroke-width:0.221;stroke-dasharray:none;stroke-opacity:1;paint-order:stroke markers fill"
     x="46.034641"
     y="-16.204193"
     id="text6215"><tspan
       id="tspan6213"
       style="stroke-width:0.221;fill:#000000"
       x="46.034641"
       y="-16.204193" /></text>
  <g
     aria-label="low"
     id="text6402"
     style="font-size:19.7556px;font-family:'Electronica Display Solid';-inkscape-font-specification:'Electronica Display Solid';fill:none;stroke:#000000;stroke-width:0.520999;paint-order:stroke markers fill"
     transform="translate(12.239815,7.5432235)">
    <path
       d="m 53.608229,-50.786898 h -3.793075 v 14.224032 h 9.719755 v -3.081874 h -5.92668 z"
       style="stroke-width:0.521"
       id="path6425" />
    <path
       d="m 94.146626,-50.786898 h -3.931364 l -2.943584,6.302036 -1.12607,-2.390427 1.837271,-3.911609 h -3.931364 l -2.943585,6.302036 -2.943584,-6.302036 h -3.931364 l 6.874948,14.698166 3.081874,-6.578615 3.081874,6.578615 z"
       style="stroke-width:0.521"
       id="path6429" />
  </g>
  <g
     aria-label="low"
     transform="matrix(0.88140605,0,0,1.0676248,-0.05456125,0.01668468)"
     id="text6522"
     style="font-size:16.2154px;font-family:'Electronica Display Solid';-inkscape-font-specification:'Electronica Display Solid';fill:none;stroke:#000000;stroke-width:0.64738451;paint-order:stroke markers fill;stroke-dasharray:none;fill-opacity:1">
    <path
       d="M 89.89415,-12.184175 H 86.780793 V -0.50908661 H 94.75877 V -3.0386891 h -4.86462 z"
       style="stroke-width:0.64738451;stroke-dasharray:none;fill:none;fill-opacity:1"
       id="path7313" />
    <path
       d="m 123.16808,-12.184175 h -3.22687 l -2.41609,5.1727127 -0.92428,-1.9620635 1.50803,-3.2106492 h -3.22686 l -2.4161,5.1727127 -2.41609,-5.1727127 h -3.22687 l 5.64296,12.06425801 2.5296,-5.39972841 2.52961,5.39972841 z"
       style="stroke-width:0.64738451;stroke-dasharray:none;fill:none;fill-opacity:1"
       id="path7317" />
  </g>
</svg>
