<?xml version="1.0" encoding="UTF-8" standalone="no"?>
<!-- Created with Inkscape (http://www.inkscape.org/) -->

<svg
   width="136.08365mm"
   height="15.772301mm"
   viewBox="0 0 136.08365 15.772301"
   version="1.1"
   id="svg4284"
   sodipodi:docname="lowdesigns.svg"
   inkscape:version="1.2 (dc2aeda, 2022-05-15)"
   xmlns:inkscape="http://www.inkscape.org/namespaces/inkscape"
   xmlns:sodipodi="http://sodipodi.sourceforge.net/DTD/sodipodi-0.dtd"
   xmlns="http://www.w3.org/2000/svg"
   xmlns:svg="http://www.w3.org/2000/svg">
  <sodipodi:namedview
     id="namedview36"
     pagecolor="#505050"
     bordercolor="#ffffff"
     borderopacity="1"
     inkscape:showpageshadow="0"
     inkscape:pageopacity="0"
     inkscape:pagecheckerboard="1"
     inkscape:deskcolor="#505050"
     inkscape:document-units="mm"
     showgrid="false"
     inkscape:zoom="2.7008691"
     inkscape:cx="129.21766"
     inkscape:cy="-29.620095"
     inkscape:window-width="1280"
     inkscape:window-height="1024"
     inkscape:window-x="0"
     inkscape:window-y="0"
     inkscape:window-maximized="0"
     inkscape:current-layer="svg4284" />
  <defs
     id="defs4281" />
  <g
     id="layer1"
     transform="translate(-36.332613,-100.83848)">
    <g
       aria-label="lowdesigns"
       id="text4770"
       style="font-size:19.7556px;font-family:'Electronica Display Solid';-inkscape-font-specification:'Electronica Display Solid';stroke:#000000;stroke-width:0.600001;paint-order:stroke markers fill">
      <g
         id="path9622">
        <path
           style="color:#000000;-inkscape-font-specification:'Electronica Display Solid';fill:#000000;stroke:none;-inkscape-stroke:none"
           d="m 36.332031,101.3125 v 14.82422 h 10.320313 v -3.68164 H 40.726562 V 101.3125 h -0.300781 z m 0.59961,0.59961 H 40.125 v 11.14258 h 5.927734 v 2.48242 h -9.121093 z"
           id="path9757" />
        <path
           style="color:#000000;-inkscape-font-specification:'Electronica Display Solid';fill:none;stroke:#000000;stroke-width:0.6;-inkscape-stroke:none;stroke-opacity:1;fill-opacity:1"
           d="m 40.425688,101.61262 h -3.793075 v 14.22403 h 9.719755 v -3.08188 h -5.92668 z"
           id="path9759" />
      </g>
      <g
         id="path9624">
        <path
           style="color:#000000;-inkscape-font-specification:'Electronica Display Solid';fill:#000000;stroke:none;-inkscape-stroke:none"
           d="m 54.095703,101.07617 c -4.231784,0 -7.648437,3.43659 -7.648437,7.64844 0,4.23081 3.417623,7.64844 7.648437,7.64844 4.211845,0 7.650391,-3.41666 7.650391,-7.64844 0,-4.21282 -3.437571,-7.64844 -7.650391,-7.64844 z m 0,0.59961 c 3.886968,0 7.050781,3.16186 7.050781,7.04883 0,3.90751 -3.162838,7.04883 -7.050781,7.04883 -3.908484,0 -7.048828,-3.14035 -7.048828,-7.04883 0,-3.88795 3.141315,-7.04883 7.048828,-7.04883 z m 0,2.83789 c -2.31666,0 -4.210937,1.89428 -4.210937,4.21094 0,2.31666 1.894277,4.21094 4.210937,4.21094 2.316662,0 4.212891,-1.89428 4.212891,-4.21094 0,-2.31666 -1.896229,-4.21094 -4.212891,-4.21094 z m 0,0.59961 c 1.990056,0 3.613281,1.62127 3.613281,3.61133 0,1.99005 -1.623225,3.61133 -3.613281,3.61133 -1.990055,0 -3.611328,-1.62128 -3.611328,-3.61133 0,-1.99006 1.621273,-3.61133 3.611328,-3.61133 z"
           id="path9751" />
        <path
           style="color:#000000;-inkscape-font-specification:'Electronica Display Solid';fill:none;stroke:none;stroke-width:0.6;-inkscape-stroke:none"
           d="m 54.096526,101.37555 c -4.069653,0 -7.349083,3.29918 -7.349083,7.34908 0,4.06965 3.27943,7.34908 7.349083,7.34908 4.049898,0 7.349084,-3.27943 7.349084,-7.34908 0,-4.0499 -3.299186,-7.34908 -7.349084,-7.34908 z m 0,11.26069 c -2.15336,0 -3.911608,-1.75825 -3.911608,-3.91161 0,-2.15336 1.758248,-3.91161 3.911608,-3.91161 2.153361,0 3.911609,1.75825 3.911609,3.91161 0,2.15336 -1.758248,3.91161 -3.911609,3.91161 z"
           id="path9753" />
      </g>
      <g
         id="path9626">
        <path
           style="color:#000000;-inkscape-font-specification:'Electronica Display Solid';fill:#000000;stroke:none;-inkscape-stroke:none"
           d="m 60.578125,101.3125 7.347656,15.70508 3.082031,-6.57813 3.082032,6.57813 7.345703,-15.70508 h -0.470703 -4.123047 l -2.753906,5.89453 -0.792969,-1.68359 1.978515,-4.21094 h -4.595703 l -2.751953,5.89258 -2.753906,-5.89258 z m 0.943359,0.59961 h 3.269532 l 3.134765,6.71094 3.134766,-6.71094 h 3.267578 l -1.697266,3.61133 1.458985,3.09765 3.134765,-6.70898 h 3.267578 l -6.402343,13.69141 -3.082032,-6.57813 -3.082031,6.57813 z"
           id="path9763" />
        <path
           style="color:#000000;-inkscape-font-specification:'Electronica Display Solid';fill:none;stroke:none;stroke-width:0.6;-inkscape-stroke:none"
           d="m 80.964086,101.61262 h -3.931365 l -2.943584,6.30203 -1.126069,-2.39043 1.83727,-3.9116 h -3.931364 l -2.943584,6.30203 -2.943585,-6.30203 h -3.931364 l 6.874949,14.69816 3.081873,-6.57861 3.081874,6.57861 z"
           id="path9765" />
      </g>
      <g
         id="path9628">
        <path
           style="color:#000000;-inkscape-font-specification:'Electronica Display Solid';fill:#000000;stroke:none;-inkscape-stroke:none"
           d="m 82.244141,101.3125 v 14.82422 h 5.871093 c 2.282503,0 4.148888,-0.6899 5.435547,-1.97656 1.286659,-1.28666 1.976563,-3.15305 1.976563,-5.43555 0,-2.2825 -0.689904,-4.14889 -1.976563,-5.43555 -1.286659,-1.28665 -3.153044,-1.97656 -5.435547,-1.97656 z m 0.599609,0.59961 h 5.271484 c 2.162503,0 3.853625,0.64464 5.011719,1.80273 1.158094,1.1581 1.800781,2.84727 1.800781,5.00977 0,2.1625 -0.642687,3.85362 -1.800781,5.01172 -1.158094,1.15809 -2.849216,1.80078 -5.011719,1.80078 H 82.84375 Z m 3.193359,2.48242 v 8.66016 h 2.078125 c 1.134394,0 2.069337,-0.39854 2.691407,-1.1543 0.62207,-0.75576 0.927734,-1.83599 0.927734,-3.17578 0,-1.33979 -0.305664,-2.42002 -0.927734,-3.17578 -0.62207,-0.75576 -1.557013,-1.1543 -2.691407,-1.1543 z m 0.59961,0.59961 h 1.478515 c 0.999209,0 1.724518,0.32323 2.228516,0.93555 0.503998,0.61231 0.791016,1.54673 0.791016,2.79492 0,1.24819 -0.287018,2.18261 -0.791016,2.79492 -0.503998,0.61231 -1.229307,0.93555 -2.228516,0.93555 h -1.478515 z"
           id="path9769" />
        <path
           style="color:#000000;-inkscape-font-specification:'Electronica Display Solid';fill:none;stroke:none;stroke-width:0.6;-inkscape-stroke:none"
           d="m 88.11558,101.61262 h -5.571079 v 14.22403 h 5.571079 c 4.44501,0 7.112016,-2.66701 7.112016,-7.11202 0,-4.44501 -2.667006,-7.11201 -7.112016,-7.11201 z m 0,11.14215 h -1.778004 v -8.06028 h 1.778004 c 2.133605,0 3.318941,1.44216 3.318941,4.03014 0,2.58798 -1.185336,4.03014 -3.318941,4.03014 z"
           id="path9771" />
      </g>
      <g
         id="path9630">
        <path
           style="color:#000000;-inkscape-font-specification:'Electronica Display Solid';fill:#000000;stroke:none;-inkscape-stroke:none"
           d="m 96.507812,101.3125 v 14.82422 h 11.267578 v -3.68164 h -6.875 v -1.88867 h 5.45313 v -3.6836 h -5.45313 v -1.88867 h 4.03125 v -3.68164 z m 0.59961,0.59961 h 7.224608 v 2.48242 h -4.03125 v 3.08985 h 5.45313 v 2.48046 h -5.45313 v 3.08985 h 0.30078 6.57422 v 2.48242 H 97.107422 Z"
           id="path9775" />
        <path
           style="color:#000000;-inkscape-font-specification:'Electronica Display Solid';fill:none;stroke:none;stroke-width:0.6;-inkscape-stroke:none"
           d="m 100.60109,112.75477 v -2.4892 h 5.45254 v -3.08188 h -5.45254 v -2.4892 h 4.03014 v -3.08187 h -7.823217 v 14.22403 h 10.668027 v -3.08188 z"
           id="path9777" />
      </g>
      <g
         id="path9632">
        <path
           style="color:#000000;-inkscape-font-specification:'Electronica Display Solid';fill:#000000;stroke:none;-inkscape-stroke:none"
           d="m 114.70703,101.07617 c -1.9489,0 -3.49862,0.40973 -4.57617,1.23047 -1.07755,0.82074 -1.65039,2.05683 -1.65039,3.57227 0,1.52244 0.56203,2.54477 1.39648,3.17968 0.83446,0.63492 1.90363,0.89898 2.94336,1.07227 1.03974,0.17329 2.06065,0.25545 2.7793,0.45508 0.35933,0.0998 0.63728,0.22941 0.80664,0.38281 0.16936,0.1534 0.25195,0.31784 0.25195,0.60156 0,0.31725 -0.1232,0.52177 -0.43554,0.70313 -0.31235,0.18136 -0.82743,0.30078 -1.51563,0.30078 -0.68272,0 -1.18779,-0.13548 -1.49805,-0.34766 -0.31025,-0.21217 -0.45507,-0.48264 -0.45507,-0.89453 v -0.29883 h -4.39258 v 0.29883 c 0,1.59196 0.58055,2.88617 1.67773,3.74805 1.09718,0.86188 2.67839,1.29297 4.66797,1.29297 1.97737,0 3.55228,-0.40359 4.65235,-1.22071 1.10006,-0.81711 1.69335,-2.05516 1.69335,-3.58203 0,-1.52244 -0.56203,-2.54477 -1.39648,-3.17968 -0.83445,-0.63492 -1.90557,-0.89898 -2.94531,-1.07227 -1.03974,-0.17329 -2.06065,-0.25545 -2.7793,-0.45508 -0.35933,-0.0998 -0.63728,-0.22941 -0.80664,-0.38281 -0.16936,-0.1534 -0.25195,-0.31784 -0.25195,-0.60156 0,-0.32201 0.1202,-0.52832 0.41211,-0.70703 0.2919,-0.17872 0.77508,-0.29688 1.42187,-0.29688 0.64099,0 1.11176,0.13422 1.40235,0.34375 0.29058,0.20953 0.43164,0.48255 0.43164,0.89844 v 0.29883 h 4.39257 v -0.29883 c 0,-1.59066 -0.56932,-2.88331 -1.64648,-3.7461 -1.07716,-0.86279 -2.62911,-1.29492 -4.58008,-1.29492 z m 0,0.59961 c 1.86185,0 3.27211,0.41677 4.20508,1.16406 0.85923,0.68823 1.29443,1.6937 1.36523,2.97657 h -3.28515 c -0.0813,-0.41841 -0.1905,-0.83827 -0.53125,-1.08399 -0.43544,-0.31398 -1.03177,-0.45703 -1.75391,-0.45703 -0.71635,0 -1.30026,0.11899 -1.73437,0.38477 -0.43411,0.26578 -0.69922,0.71102 -0.69922,1.21875 0,0.42747 0.17129,0.79513 0.44922,1.04687 0.27792,0.25174 0.64139,0.40245 1.04882,0.51563 0.81488,0.22635 1.83684,0.30125 2.8418,0.46875 1.00497,0.16749 1.98062,0.42708 2.67969,0.95898 0.69907,0.5319 1.1582,1.31954 1.1582,2.70117 0,1.37721 -0.4947,2.39061 -1.44922,3.09961 -0.95452,0.70901 -2.4002,1.10352 -4.29492,1.10352 -1.90227,0 -3.34441,-0.41782 -4.29687,-1.16602 -0.87714,-0.68903 -1.31861,-1.69303 -1.39063,-2.97461 h 3.28906 c 0.086,0.42179 0.20571,0.84389 0.5625,1.08789 0.45528,0.31135 1.07651,0.45313 1.83594,0.45313 0.75395,0 1.36322,-0.11967 1.81641,-0.38281 0.45318,-0.26315 0.73437,-0.70822 0.73437,-1.22071 0,-0.42747 -0.17129,-0.79513 -0.44922,-1.04687 -0.27792,-0.25174 -0.63943,-0.40245 -1.04687,-0.51563 -0.81487,-0.22635 -1.83879,-0.30125 -2.84375,-0.46875 -1.00496,-0.16749 -1.97866,-0.42708 -2.67774,-0.95898 -0.69907,-0.53191 -1.16015,-1.31955 -1.16015,-2.70117 0,-1.36887 0.48344,-2.38344 1.41601,-3.09375 0.93258,-0.71032 2.34701,-1.10938 4.21094,-1.10938 z"
           id="path9781" />
        <path
           style="color:#000000;-inkscape-font-specification:'Electronica Display Solid';fill:none;stroke:none;stroke-width:0.6;-inkscape-stroke:none"
           d="m 112.57296,105.87982 c 0,-0.82973 0.77047,-1.30386 2.13361,-1.30386 1.36313,0 2.1336,0.55315 2.1336,1.54093 h 3.79308 c 0,-3.04236 -2.11385,-4.74134 -5.92668,-4.74134 -3.81284,0 -5.92668,1.61996 -5.92668,4.50427 0,5.80815 8.17881,2.84481 8.17881,5.68962 0,0.82973 -0.80998,1.30387 -2.25213,1.30387 -1.44216,0 -2.25214,-0.55316 -2.25214,-1.54094 h -3.79308 c 0,3.04236 2.15336,4.74134 6.04522,4.74134 3.87209,0 6.04521,-1.6002 6.04521,-4.50427 0,-5.80815 -8.17882,-2.84481 -8.17882,-5.68962 z"
           id="path9783" />
      </g>
      <g
         id="path9634">
        <path
           style="color:#000000;-inkscape-font-specification:'Electronica Display Solid';fill:#000000;stroke:none;-inkscape-stroke:none"
           d="m 122.03125,101.3125 v 3.68164 h 1.42383 v 7.46094 h -1.42383 v 3.68164 h 7.23828 v -3.68164 h -1.42187 v -7.46094 h 1.42187 v -3.68164 z m 0.60156,0.59961 h 6.03711 v 2.48242 h -1.42187 v 8.66016 h 0.29883 1.12304 v 2.48242 h -6.03711 v -2.48242 h 1.42188 v -8.66016 h -1.42188 z"
           id="path9787" />
        <path
           style="color:#000000;-inkscape-font-specification:'Electronica Display Solid';fill:none;stroke:#000000;stroke-width:0.6;-inkscape-stroke:none;stroke-opacity:1"
           d="m 127.54769,112.75477 v -8.06028 h 1.4224 v -3.08187 h -6.63788 v 3.08187 h 1.42241 v 8.06028 h -1.42241 v 3.08188 h 6.63788 v -3.08188 z"
           id="path9789" />
      </g>
      <g
         id="path9636">
        <path
           style="color:#000000;-inkscape-font-specification:'Electronica Display Solid';fill:#000000;stroke:none;-inkscape-stroke:none"
           d="m 137.50391,101.07617 c -4.23179,0 -7.64844,3.43659 -7.64844,7.64844 0,4.23081 3.41763,7.64844 7.64844,7.64844 4.0982,0 7.41211,-3.42248 7.41211,-7.64844 0,-0.38591 -0.019,-0.77761 -0.082,-1.15625 l -0.043,-0.25 h -0.25391 -7.57031 v 3.20703 h 3.34375 c -0.59536,1.04961 -1.59238,1.81055 -2.80664,1.81055 -1.99006,0 -3.61133,-1.62128 -3.61133,-3.61133 0,-1.99006 1.62127,-3.61133 3.61133,-3.61133 1.1706,0 2.20533,0.54525 2.86132,1.41992 l 0.1836,0.24414 3.20312,-2.46093 -0.18164,-0.23828 c -1.39804,-1.82979 -3.60073,-3.00196 -6.0664,-3.00196 z m 0,0.59961 c 2.16556,0 4.06236,1.02217 5.35546,2.57031 l -2.25195,1.72852 c -0.76949,-0.87857 -1.85701,-1.46094 -3.10351,-1.46094 -2.31666,0 -4.21094,1.89428 -4.21094,4.21094 0,2.31666 1.89428,4.21094 4.21094,4.21094 1.65104,0 3.08298,-1.07222 3.67773,-2.60157 l 0.16016,-0.4082 h -3.77344 v -2.00781 h 6.69141 c 0.03,0.26273 0.0566,0.52814 0.0566,0.80664 0,3.91333 -3.04797,7.04883 -6.8125,7.04883 -3.90848,0 -7.04883,-3.14035 -7.04883,-7.04883 0,-3.88795 3.14132,-7.04883 7.04883,-7.04883 z"
           id="path9793" />
        <path
           style="color:#000000;-inkscape-font-specification:'Electronica Display Solid';fill:none;stroke:none;stroke-width:0.6;-inkscape-stroke:none"
           d="m 144.53748,107.61832 h -7.27006 v 2.60774 h 3.63503 c -0.55316,1.4224 -1.87679,2.41018 -3.39797,2.41018 -2.15336,0 -3.91161,-1.75825 -3.91161,-3.91161 0,-2.15336 1.75825,-3.91161 3.91161,-3.91161 1.26436,0 2.39043,0.59267 3.10163,1.54094 l 2.72628,-2.09409 c -1.34339,-1.75825 -3.45723,-2.88432 -5.82791,-2.88432 -4.06965,0 -7.34908,3.29918 -7.34908,7.34908 0,4.06965 3.27943,7.34908 7.34908,7.34908 3.93137,0 7.11202,-3.27943 7.11202,-7.34908 0,-0.37536 -0.0198,-0.75071 -0.079,-1.10631 z"
           id="path9795" />
      </g>
      <g
         id="path9638">
        <path
           style="color:#000000;-inkscape-font-specification:'Electronica Display Solid';fill:#000000;stroke:none;-inkscape-stroke:none"
           d="m 145.89648,100.45117 v 15.68555 h 4.39258 v -6.60742 l 8.06055,7.46875 V 101.3125 h -4.39258 v 0.30078 6.30664 z m 0.59961,1.375 8.06055,7.4668 v -7.38086 H 157.75 v 13.71094 l -8.06055,-7.4668 v 7.38086 h -3.19336 z"
           id="path9799" />
        <path
           style="color:#000000;-inkscape-font-specification:'Electronica Display Solid';fill:none;stroke:none;stroke-width:0.6;-inkscape-stroke:none"
           d="m 154.25722,101.61262 v 6.99348 l -8.06028,-7.46762 v 14.69817 h 3.79307 v -6.99349 l 8.06029,7.46762 v -14.69816 z"
           id="path9801" />
      </g>
      <g
         id="path9640">
        <path
           style="color:#000000;-inkscape-font-specification:'Electronica Display Solid';fill:#000000;stroke:none;-inkscape-stroke:none"
           d="m 166.07031,101.07617 c -1.9489,0 -3.49666,0.40973 -4.57422,1.23047 -1.07755,0.82074 -1.65234,2.05682 -1.65234,3.57227 0,1.52244 0.56203,2.54477 1.39648,3.17968 0.83446,0.63492 1.90363,0.89898 2.94336,1.07227 1.03974,0.17329 2.0626,0.25545 2.78125,0.45508 0.35933,0.0998 0.63533,0.22941 0.80469,0.38281 0.16936,0.1534 0.25391,0.31784 0.25391,0.60156 0,0.31725 -0.12321,0.52177 -0.43555,0.70313 -0.31234,0.18136 -0.82938,0.30078 -1.51758,0.30078 -0.68272,0 -1.18584,-0.13548 -1.49609,-0.34766 -0.31025,-0.21217 -0.45508,-0.48264 -0.45508,-0.89453 v -0.29883 h -4.39258 v 0.29883 c 0,1.59196 0.58056,2.88617 1.67774,3.74805 1.09718,0.86188 2.67643,1.29297 4.66601,1.29297 1.97738,0 3.55424,-0.40359 4.6543,-1.22071 1.10006,-0.81711 1.69141,-2.05516 1.69141,-3.58203 0,-1.52244 -0.56203,-2.54477 -1.39649,-3.17968 -0.83445,-0.63492 -1.90362,-0.89898 -2.94336,-1.07227 -1.03974,-0.17329 -2.06259,-0.25545 -2.78125,-0.45508 -0.35932,-0.0998 -0.63533,-0.22941 -0.80469,-0.38281 -0.16935,-0.1534 -0.25195,-0.31784 -0.25195,-0.60156 0,-0.32201 0.1202,-0.52832 0.41211,-0.70703 0.29191,-0.17872 0.77314,-0.29688 1.41992,-0.29688 0.64099,0 1.11176,0.13422 1.40235,0.34375 0.29058,0.20953 0.43164,0.48255 0.43164,0.89844 v 0.29883 h 4.39257 v -0.29883 c 0,-1.59066 -0.56736,-2.88331 -1.64453,-3.7461 -1.07716,-0.86279 -2.63105,-1.29492 -4.58203,-1.29492 z m 0,0.59961 c 1.86186,0 3.27407,0.41677 4.20703,1.16406 0.85922,0.68822 1.29247,1.69373 1.36328,2.97657 h -3.28515 c -0.0813,-0.41841 -0.1905,-0.83828 -0.53125,-1.08399 -0.43544,-0.31398 -1.03176,-0.45703 -1.75391,-0.45703 -0.71634,0 -1.30026,0.11899 -1.73437,0.38477 -0.43411,0.26578 -0.69922,0.71102 -0.69922,1.21875 0,0.42747 0.17325,0.79513 0.45117,1.04687 0.27792,0.25174 0.63944,0.40245 1.04688,0.51563 0.81487,0.22635 1.83878,0.30125 2.84375,0.46875 1.00496,0.16749 1.97866,0.42708 2.67773,0.95898 0.69907,0.5319 1.16016,1.31954 1.16016,2.70117 0,1.37721 -0.4947,2.39061 -1.44922,3.09961 -0.95452,0.70901 -2.40216,1.10352 -4.29688,1.10352 -1.90227,0 -3.34441,-0.41782 -4.29687,-1.16602 -0.87714,-0.68903 -1.31665,-1.69303 -1.38867,-2.97461 h 3.28906 c 0.086,0.42171 0.20381,0.84393 0.56054,1.08789 0.45528,0.31135 1.07651,0.45313 1.83594,0.45313 0.75396,0 1.36518,-0.11967 1.81836,-0.38281 0.45319,-0.26315 0.73438,-0.70822 0.73438,-1.22071 0,-0.42747 -0.1713,-0.79513 -0.44922,-1.04687 -0.27792,-0.25174 -0.64139,-0.40245 -1.04883,-0.51563 -0.81487,-0.22635 -1.83683,-0.30125 -2.8418,-0.46875 -1.00496,-0.16749 -1.98061,-0.42708 -2.67968,-0.95898 -0.69908,-0.53191 -1.15821,-1.31955 -1.15821,-2.70117 0,-1.36887 0.48149,-2.38344 1.41406,-3.09375 0.93258,-0.71032 2.34702,-1.10938 4.21094,-1.10938 z"
           id="path9805" />
        <path
           style="color:#000000;-inkscape-font-specification:'Electronica Display Solid';fill:none;stroke:none;stroke-width:0.6;-inkscape-stroke:none"
           d="m 163.93745,105.87982 c 0,-0.82973 0.77047,-1.30386 2.1336,-1.30386 1.36314,0 2.13361,0.55315 2.13361,1.54093 h 3.79307 c 0,-3.04236 -2.11385,-4.74134 -5.92668,-4.74134 -3.81283,0 -5.92668,1.61996 -5.92668,4.50427 0,5.80815 8.17882,2.84481 8.17882,5.68962 0,0.82973 -0.80998,1.30387 -2.25214,1.30387 -1.44216,0 -2.25214,-0.55316 -2.25214,-1.54094 h -3.79307 c 0,3.04236 2.15336,4.74134 6.04521,4.74134 3.8721,0 6.04522,-1.6002 6.04522,-4.50427 0,-5.80815 -8.17882,-2.84481 -8.17882,-5.68962 z"
           id="path9807" />
      </g>
    </g>
  </g>
  <path
     style="fill:none;stroke:#000000;stroke-width:0.497305;stroke-dasharray:none;paint-order:stroke markers fill"
     id="path2532"
     sodipodi:type="arc"
     sodipodi:cx="26.74217"
     sodipodi:cy="-23.581493"
     sodipodi:rx="11.730819"
     sodipodi:ry="14.423538"
     sodipodi:start="5.5925776"
     sodipodi:end="4.424367"
     sodipodi:arc-type="arc"
     d="m 35.784978,-32.76937 a 11.730819,14.423538 0 0 1 0.716956,17.190217 11.730819,14.423538 0 0 1 -13.182537,5.7935809 11.730819,14.423538 0 0 1 -8.30795,-13.8540579 11.730819,14.423538 0 0 1 8.398511,-13.771262"
     sodipodi:open="true" />
  <path
     style="fill:none;stroke:#000000;stroke-width:0.412757;stroke-dasharray:none;paint-order:stroke markers fill"
     id="path2581"
     sodipodi:type="arc"
     sodipodi:cx="26.731176"
     sodipodi:cy="-23.598795"
     sodipodi:rx="9.7364397"
     sodipodi:ry="11.971365"
     sodipodi:start="4.2766126"
     sodipodi:end="3.1909455"
     sodipodi:arc-type="arc"
     d="m 22.621285,-34.451347 a 9.7364397,11.971365 0 0 1 11.511421,3.074725 9.7364397,11.971365 0 0 1 0.677011,14.459961 9.7364397,11.971365 0 0 1 -11.148411,4.678608 9.7364397,11.971365 0 0 1 -6.654714,-11.951323"
     sodipodi:open="true" />
  <path
     style="fill:none;stroke:#000000;stroke-width:0.335255;stroke-dasharray:none;paint-order:stroke markers fill"
     id="path2583"
     sodipodi:type="arc"
     sodipodi:cx="26.777378"
     sodipodi:cy="-23.633415"
     sodipodi:rx="7.9082594"
     sodipodi:ry="9.7235394"
     sodipodi:start="6.1487871"
     sodipodi:end="5.0782631"
     sodipodi:arc-type="arc"
     d="m 34.614322,-24.936311 a 7.9082594,9.7235394 0 0 1 -4.742548,10.251167 7.9082594,9.7235394 0 0 1 -9.294729,-2.91268 7.9082594,9.7235394 0 0 1 -0.173388,-11.791668 7.9082594,9.7235394 0 0 1 9.203025,-3.323875"
     sodipodi:open="true" />
  <path
     style="fill:none;stroke:#000000;stroke-width:0.255404;stroke-dasharray:none;paint-order:stroke markers fill"
     id="path2585"
     sodipodi:type="arc"
     sodipodi:cx="26.879557"
     sodipodi:cy="-23.512182"
     sodipodi:rx="6.0246792"
     sodipodi:ry="7.407598"
     sodipodi:start="1.376539"
     sodipodi:end="0.25284792"
     sodipodi:arc-type="arc"
     d="m 28.042548,-16.243911 a 6.0246792,7.407598 0 0 1 -6.520198,-3.879306 6.0246792,7.407598 0 0 1 1.223726,-8.778106 6.0246792,7.407598 0 0 1 7.198736,-0.988021 6.0246792,7.407598 0 0 1 2.767863,8.230264"
     sodipodi:open="true" />
  <path
     style="fill:none;stroke:#000000;stroke-width:0.192383;stroke-dasharray:none;paint-order:stroke markers fill"
     id="path2587"
     sodipodi:type="arc"
     sodipodi:cx="27.026428"
     sodipodi:cy="-23.318159"
     sodipodi:rx="4.5380926"
     sodipodi:ry="5.5797768"
     sodipodi:start="1.376539"
     sodipodi:end="0.25284792"
     sodipodi:arc-type="arc"
     d="m 27.902452,-17.843331 a 4.5380926,5.5797768 0 0 1 -4.911343,-2.922088 4.5380926,5.5797768 0 0 1 0.921773,-6.612113 4.5380926,5.5797768 0 0 1 5.422451,-0.744228 4.5380926,5.5797768 0 0 1 2.084894,6.199451"
     sodipodi:open="true" />
</svg>
