<?xml version="1.0" encoding="UTF-8" standalone="no"?>
<!-- Created with Inkscape (http://www.inkscape.org/) -->

<svg
   width="136.08365mm"
   height="15.772301mm"
   viewBox="0 0 136.08365 15.772301"
   version="1.1"
   id="svg4284"
   inkscape:version="1.2 (dc2aeda, 2022-05-15)"
   sodipodi:docname="lowdesigns.svg"
   inkscape:dataloss="true"
   xmlns:inkscape="http://www.inkscape.org/namespaces/inkscape"
   xmlns:sodipodi="http://sodipodi.sourceforge.net/DTD/sodipodi-0.dtd"
   xmlns="http://www.w3.org/2000/svg"
   xmlns:svg="http://www.w3.org/2000/svg">
  <sodipodi:namedview
     id="namedview4286"
     pagecolor="#505050"
     bordercolor="#ffffff"
     borderopacity="1"
     inkscape:showpageshadow="0"
     inkscape:pageopacity="0"
     inkscape:pagecheckerboard="1"
     inkscape:deskcolor="#505050"
     inkscape:document-units="mm"
     showgrid="true"
     inkscape:zoom="1.3504346"
     inkscape:cx="246.95754"
     inkscape:cy="180.68258"
     inkscape:window-width="1280"
     inkscape:window-height="1024"
     inkscape:window-x="0"
     inkscape:window-y="0"
     inkscape:window-maximized="0"
     inkscape:current-layer="layer1">
    <inkscape:grid
       type="xygrid"
       id="grid13935" />
  </sodipodi:namedview>
  <defs
     id="defs4281" />
  <g
     inkscape:label="Layer 1"
     inkscape:groupmode="layer"
     id="layer1"
     transform="translate(-36.332613,-100.83848)">
    <g
       aria-label="lowdesigns"
       id="text4770"
       style="font-size:19.7556px;font-family:'Electronica Display Solid';-inkscape-font-specification:'Electronica Display Solid';stroke:#000000;stroke-width:0.600001;paint-order:stroke markers fill;fill:none;fill-opacity:1;stroke-opacity:1;stroke-dasharray:none;stroke-dashoffset:3.00000489"><g
   id="path9622"
   style="fill:none;fill-opacity:1;stroke:#000000;stroke-opacity:1;stroke-dasharray:none;stroke-dashoffset:3.00000489">
  <path
     style="color:#000000;-inkscape-font-specification:'Electronica Display Solid';fill:none;fill-opacity:1;stroke:#000000;stroke-width:0.442834;stroke-opacity:1;-inkscape-stroke:none;stroke-dasharray:none;stroke-dashoffset:3.00000489"
     d="m 53.097975,106.46623 h -3.037988 v 9.67402 h 7.784846 v -2.09604 h -4.746858 z"
     id="path9759" />
</g>
<g
   id="path9624"
   style="fill:none;fill-opacity:1;stroke:#000000;stroke-opacity:1;stroke-dasharray:none;stroke-dashoffset:3.00000489">
  <path
     style="color:#000000;-inkscape-font-specification:'Electronica Display Solid';fill:none;fill-opacity:1;stroke:#000000;stroke-width:0.401765;stroke-opacity:1;-inkscape-stroke:none;stroke-dasharray:none;stroke-dashoffset:3.00000489"
     d="m 63.128344,106.43143 c -2.766128,0 -4.995144,2.17636 -4.995144,4.84797 0,2.68461 2.229016,4.84794 4.995144,4.84794 2.752701,0 4.995145,-2.16333 4.995145,-4.84794 0,-2.67161 -2.242444,-4.84797 -4.995145,-4.84797 z m 0,7.42833 c -1.463632,0 -2.658704,-1.15987 -2.658704,-2.58036 0,-1.42051 1.195072,-2.58038 2.658704,-2.58038 1.463633,0 2.658705,1.15987 2.658705,2.58038 0,1.42049 -1.195072,2.58036 -2.658705,2.58036 z"
     id="path9753" />
</g>
<g
   id="g14671"
   style="fill:none;fill-opacity:1;stroke:#000000;stroke-opacity:1;stroke-dasharray:none;stroke-dashoffset:3.00000489">
  <path
     style="color:#000000;-inkscape-font-specification:'Electronica Display Solid';fill:none;fill-opacity:1;stroke:#000000;stroke-width:0.401765;stroke-opacity:1;-inkscape-stroke:none;stroke-dasharray:none;stroke-dashoffset:3.00000489"
     d="m 63.128344,106.43143 c -2.766128,0 -4.995144,2.17636 -4.995144,4.84797 0,2.68461 2.229016,4.84794 4.995144,4.84794 2.752701,0 4.995145,-2.16333 4.995145,-4.84794 0,-2.67161 -2.242444,-4.84797 -4.995145,-4.84797 z m 0,7.42833 c -1.463632,0 -2.658704,-1.15987 -2.658704,-2.58036 0,-1.42051 1.195072,-2.58038 2.658704,-2.58038 1.463633,0 2.658705,1.15987 2.658705,2.58038 0,1.42049 -1.195072,2.58036 -2.658705,2.58036 z"
     id="path14669" />
</g>
<g
   id="path9626"
   style="fill:none;fill-opacity:1;stroke:#000000;stroke-opacity:1;stroke-dasharray:none;stroke-dashoffset:3.00000489">
  <path
     style="color:#000000;-inkscape-font-specification:'Electronica Display Solid';fill:none;fill-opacity:1;stroke:#000000;stroke-width:0.399666;stroke-opacity:1;-inkscape-stroke:none;stroke-dasharray:none;stroke-dashoffset:3.00000489"
     d="m 81.148365,106.5216 h -2.727538 l -2.042226,4.03037 -0.781253,-1.52876 1.274677,-2.50161 h -2.727536 l -2.042225,4.03037 -2.042227,-4.03037 h -2.727538 l 4.769765,9.39999 2.138168,-4.20725 2.138169,4.20725 z"
     id="path9765" />
</g>
<g
   id="path9628"
   style="fill:none;fill-opacity:1;stroke:#000000;stroke-opacity:1;stroke-dasharray:none;stroke-dashoffset:3.00000489">
  <path
     style="color:#000000;-inkscape-font-specification:'Electronica Display Solid';fill:none;stroke:#000000;-inkscape-stroke:none;fill-opacity:1;stroke-opacity:1;stroke-dasharray:none;stroke-dashoffset:3.00000489"
     d="m 82.244141,101.3125 v 14.82422 h 5.871093 c 2.282503,0 4.148888,-0.6899 5.435547,-1.97656 1.286659,-1.28666 1.976563,-3.15305 1.976563,-5.43555 0,-2.2825 -0.689904,-4.14889 -1.976563,-5.43555 -1.286659,-1.28665 -3.153044,-1.97656 -5.435547,-1.97656 z m 0.599609,0.59961 h 5.271484 c 2.162503,0 3.853625,0.64464 5.011719,1.80273 1.158094,1.1581 1.800781,2.84727 1.800781,5.00977 0,2.1625 -0.642687,3.85362 -1.800781,5.01172 -1.158094,1.15809 -2.849216,1.80078 -5.011719,1.80078 H 82.84375 Z m 3.193359,2.48242 v 8.66016 h 2.078125 c 1.134394,0 2.069337,-0.39854 2.691407,-1.1543 0.62207,-0.75576 0.927734,-1.83599 0.927734,-3.17578 0,-1.33979 -0.305664,-2.42002 -0.927734,-3.17578 -0.62207,-0.75576 -1.557013,-1.1543 -2.691407,-1.1543 z m 0.59961,0.59961 h 1.478515 c 0.999209,0 1.724518,0.32323 2.228516,0.93555 0.503998,0.61231 0.791016,1.54673 0.791016,2.79492 0,1.24819 -0.287018,2.18261 -0.791016,2.79492 -0.503998,0.61231 -1.229307,0.93555 -2.228516,0.93555 h -1.478515 z"
     id="path9769" />
  <path
     style="color:#000000;-inkscape-font-specification:'Electronica Display Solid';fill:none;stroke:#000000;stroke-width:0.6;-inkscape-stroke:none;fill-opacity:1;stroke-opacity:1;stroke-dasharray:none;stroke-dashoffset:3.00000489"
     d="m 88.11558,101.61262 h -5.571079 v 14.22403 h 5.571079 c 4.44501,0 7.112016,-2.66701 7.112016,-7.11202 0,-4.44501 -2.667006,-7.11201 -7.112016,-7.11201 z m 0,11.14215 h -1.778004 v -8.06028 h 1.778004 c 2.133605,0 3.318941,1.44216 3.318941,4.03014 0,2.58798 -1.185336,4.03014 -3.318941,4.03014 z"
     id="path9771" />
</g>
<g
   id="path9630"
   style="fill:none;fill-opacity:1;stroke:#000000;stroke-opacity:1;stroke-dasharray:none;stroke-dashoffset:3.00000489">
  <path
     style="color:#000000;-inkscape-font-specification:'Electronica Display Solid';fill:none;stroke:#000000;-inkscape-stroke:none;fill-opacity:1;stroke-opacity:1;stroke-dasharray:none;stroke-dashoffset:3.00000489"
     d="m 96.507812,101.3125 v 14.82422 h 11.267578 v -3.68164 h -6.875 v -1.88867 h 5.45313 v -3.6836 h -5.45313 v -1.88867 h 4.03125 v -3.68164 z m 0.59961,0.59961 h 7.224608 v 2.48242 h -4.03125 v 3.08985 h 5.45313 v 2.48046 h -5.45313 v 3.08985 h 0.30078 6.57422 v 2.48242 H 97.107422 Z"
     id="path9775" />
  <path
     style="color:#000000;-inkscape-font-specification:'Electronica Display Solid';fill:none;stroke:#000000;stroke-width:0.6;-inkscape-stroke:none;fill-opacity:1;stroke-opacity:1;stroke-dasharray:none;stroke-dashoffset:3.00000489"
     d="m 100.60109,112.75477 v -2.4892 h 5.45254 v -3.08188 h -5.45254 v -2.4892 h 4.03014 v -3.08187 h -7.823217 v 14.22403 h 10.668027 v -3.08188 z"
     id="path9777" />
</g>
<g
   id="path9632"
   style="fill:none;fill-opacity:1;stroke:#000000;stroke-opacity:1;stroke-dasharray:none;stroke-dashoffset:3.00000489">
  <path
     style="color:#000000;-inkscape-font-specification:'Electronica Display Solid';fill:none;stroke:#000000;-inkscape-stroke:none;fill-opacity:1;stroke-opacity:1;stroke-dasharray:none;stroke-dashoffset:3.00000489"
     d="m 114.70703,101.07617 c -1.9489,0 -3.49862,0.40973 -4.57617,1.23047 -1.07755,0.82074 -1.65039,2.05683 -1.65039,3.57227 0,1.52244 0.56203,2.54477 1.39648,3.17968 0.83446,0.63492 1.90363,0.89898 2.94336,1.07227 1.03974,0.17329 2.06065,0.25545 2.7793,0.45508 0.35933,0.0998 0.63728,0.22941 0.80664,0.38281 0.16936,0.1534 0.25195,0.31784 0.25195,0.60156 0,0.31725 -0.1232,0.52177 -0.43554,0.70313 -0.31235,0.18136 -0.82743,0.30078 -1.51563,0.30078 -0.68272,0 -1.18779,-0.13548 -1.49805,-0.34766 -0.31025,-0.21217 -0.45507,-0.48264 -0.45507,-0.89453 v -0.29883 h -4.39258 v 0.29883 c 0,1.59196 0.58055,2.88617 1.67773,3.74805 1.09718,0.86188 2.67839,1.29297 4.66797,1.29297 1.97737,0 3.55228,-0.40359 4.65235,-1.22071 1.10006,-0.81711 1.69335,-2.05516 1.69335,-3.58203 0,-1.52244 -0.56203,-2.54477 -1.39648,-3.17968 -0.83445,-0.63492 -1.90557,-0.89898 -2.94531,-1.07227 -1.03974,-0.17329 -2.06065,-0.25545 -2.7793,-0.45508 -0.35933,-0.0998 -0.63728,-0.22941 -0.80664,-0.38281 -0.16936,-0.1534 -0.25195,-0.31784 -0.25195,-0.60156 0,-0.32201 0.1202,-0.52832 0.41211,-0.70703 0.2919,-0.17872 0.77508,-0.29688 1.42187,-0.29688 0.64099,0 1.11176,0.13422 1.40235,0.34375 0.29058,0.20953 0.43164,0.48255 0.43164,0.89844 v 0.29883 h 4.39257 v -0.29883 c 0,-1.59066 -0.56932,-2.88331 -1.64648,-3.7461 -1.07716,-0.86279 -2.62911,-1.29492 -4.58008,-1.29492 z m 0,0.59961 c 1.86185,0 3.27211,0.41677 4.20508,1.16406 0.85923,0.68823 1.29443,1.6937 1.36523,2.97657 h -3.28515 c -0.0813,-0.41841 -0.1905,-0.83827 -0.53125,-1.08399 -0.43544,-0.31398 -1.03177,-0.45703 -1.75391,-0.45703 -0.71635,0 -1.30026,0.11899 -1.73437,0.38477 -0.43411,0.26578 -0.69922,0.71102 -0.69922,1.21875 0,0.42747 0.17129,0.79513 0.44922,1.04687 0.27792,0.25174 0.64139,0.40245 1.04882,0.51563 0.81488,0.22635 1.83684,0.30125 2.8418,0.46875 1.00497,0.16749 1.98062,0.42708 2.67969,0.95898 0.69907,0.5319 1.1582,1.31954 1.1582,2.70117 0,1.37721 -0.4947,2.39061 -1.44922,3.09961 -0.95452,0.70901 -2.4002,1.10352 -4.29492,1.10352 -1.90227,0 -3.34441,-0.41782 -4.29687,-1.16602 -0.87714,-0.68903 -1.31861,-1.69303 -1.39063,-2.97461 h 3.28906 c 0.086,0.42179 0.20571,0.84389 0.5625,1.08789 0.45528,0.31135 1.07651,0.45313 1.83594,0.45313 0.75395,0 1.36322,-0.11967 1.81641,-0.38281 0.45318,-0.26315 0.73437,-0.70822 0.73437,-1.22071 0,-0.42747 -0.17129,-0.79513 -0.44922,-1.04687 -0.27792,-0.25174 -0.63943,-0.40245 -1.04687,-0.51563 -0.81487,-0.22635 -1.83879,-0.30125 -2.84375,-0.46875 -1.00496,-0.16749 -1.97866,-0.42708 -2.67774,-0.95898 -0.69907,-0.53191 -1.16015,-1.31955 -1.16015,-2.70117 0,-1.36887 0.48344,-2.38344 1.41601,-3.09375 0.93258,-0.71032 2.34701,-1.10938 4.21094,-1.10938 z"
     id="path9781" />
  <path
     style="color:#000000;-inkscape-font-specification:'Electronica Display Solid';fill:none;stroke:#000000;stroke-width:0.6;-inkscape-stroke:none;fill-opacity:1;stroke-opacity:1;stroke-dasharray:none;stroke-dashoffset:3.00000489"
     d="m 112.57296,105.87982 c 0,-0.82973 0.77047,-1.30386 2.13361,-1.30386 1.36313,0 2.1336,0.55315 2.1336,1.54093 h 3.79308 c 0,-3.04236 -2.11385,-4.74134 -5.92668,-4.74134 -3.81284,0 -5.92668,1.61996 -5.92668,4.50427 0,5.80815 8.17881,2.84481 8.17881,5.68962 0,0.82973 -0.80998,1.30387 -2.25213,1.30387 -1.44216,0 -2.25214,-0.55316 -2.25214,-1.54094 h -3.79308 c 0,3.04236 2.15336,4.74134 6.04522,4.74134 3.87209,0 6.04521,-1.6002 6.04521,-4.50427 0,-5.80815 -8.17882,-2.84481 -8.17882,-5.68962 z"
     id="path9783" />
</g>
<g
   id="path9634"
   style="fill:none;fill-opacity:1;stroke:#000000;stroke-opacity:1;stroke-dasharray:none;stroke-dashoffset:3.00000489">
  <path
     style="color:#000000;-inkscape-font-specification:'Electronica Display Solid';fill:none;stroke:#000000;-inkscape-stroke:none;fill-opacity:1;stroke-opacity:1;stroke-dasharray:none;stroke-dashoffset:3.00000489"
     d="m 122.03125,101.3125 v 3.68164 h 1.42383 v 7.46094 h -1.42383 v 3.68164 h 7.23828 v -3.68164 h -1.42187 v -7.46094 h 1.42187 v -3.68164 z m 0.60156,0.59961 h 6.03711 v 2.48242 h -1.42187 v 8.66016 h 0.29883 1.12304 v 2.48242 h -6.03711 v -2.48242 h 1.42188 v -8.66016 h -1.42188 z"
     id="path9787" />
  <path
     style="color:#000000;-inkscape-font-specification:'Electronica Display Solid';fill:none;stroke:#000000;stroke-width:0.6;-inkscape-stroke:none;stroke-opacity:1;fill-opacity:1;stroke-dasharray:none;stroke-dashoffset:3.00000489"
     d="m 127.54769,112.75477 v -8.06028 h 1.4224 v -3.08187 h -6.63788 v 3.08187 h 1.42241 v 8.06028 h -1.42241 v 3.08188 h 6.63788 v -3.08188 z"
     id="path9789" />
</g>
<g
   id="path9636"
   style="fill:none;fill-opacity:1;stroke:#000000;stroke-opacity:1;stroke-dasharray:none;stroke-dashoffset:3.00000489">
  <path
     style="color:#000000;-inkscape-font-specification:'Electronica Display Solid';fill:none;stroke:#000000;-inkscape-stroke:none;fill-opacity:1;stroke-opacity:1;stroke-dasharray:none;stroke-dashoffset:3.00000489"
     d="m 137.50391,101.07617 c -4.23179,0 -7.64844,3.43659 -7.64844,7.64844 0,4.23081 3.41763,7.64844 7.64844,7.64844 4.0982,0 7.41211,-3.42248 7.41211,-7.64844 0,-0.38591 -0.019,-0.77761 -0.082,-1.15625 l -0.043,-0.25 h -0.25391 -7.57031 v 3.20703 h 3.34375 c -0.59536,1.04961 -1.59238,1.81055 -2.80664,1.81055 -1.99006,0 -3.61133,-1.62128 -3.61133,-3.61133 0,-1.99006 1.62127,-3.61133 3.61133,-3.61133 1.1706,0 2.20533,0.54525 2.86132,1.41992 l 0.1836,0.24414 3.20312,-2.46093 -0.18164,-0.23828 c -1.39804,-1.82979 -3.60073,-3.00196 -6.0664,-3.00196 z m 0,0.59961 c 2.16556,0 4.06236,1.02217 5.35546,2.57031 l -2.25195,1.72852 c -0.76949,-0.87857 -1.85701,-1.46094 -3.10351,-1.46094 -2.31666,0 -4.21094,1.89428 -4.21094,4.21094 0,2.31666 1.89428,4.21094 4.21094,4.21094 1.65104,0 3.08298,-1.07222 3.67773,-2.60157 l 0.16016,-0.4082 h -3.77344 v -2.00781 h 6.69141 c 0.03,0.26273 0.0566,0.52814 0.0566,0.80664 0,3.91333 -3.04797,7.04883 -6.8125,7.04883 -3.90848,0 -7.04883,-3.14035 -7.04883,-7.04883 0,-3.88795 3.14132,-7.04883 7.04883,-7.04883 z"
     id="path9793" />
  <path
     style="color:#000000;-inkscape-font-specification:'Electronica Display Solid';fill:none;stroke:#000000;stroke-width:0.6;-inkscape-stroke:none;fill-opacity:1;stroke-opacity:1;stroke-dasharray:none;stroke-dashoffset:3.00000489"
     d="m 144.53748,107.61832 h -7.27006 v 2.60774 h 3.63503 c -0.55316,1.4224 -1.87679,2.41018 -3.39797,2.41018 -2.15336,0 -3.91161,-1.75825 -3.91161,-3.91161 0,-2.15336 1.75825,-3.91161 3.91161,-3.91161 1.26436,0 2.39043,0.59267 3.10163,1.54094 l 2.72628,-2.09409 c -1.34339,-1.75825 -3.45723,-2.88432 -5.82791,-2.88432 -4.06965,0 -7.34908,3.29918 -7.34908,7.34908 0,4.06965 3.27943,7.34908 7.34908,7.34908 3.93137,0 7.11202,-3.27943 7.11202,-7.34908 0,-0.37536 -0.0198,-0.75071 -0.079,-1.10631 z"
     id="path9795" />
</g>
<g
   id="g14304"
   style="fill:none;fill-opacity:1;stroke:#000000;stroke-opacity:1;stroke-dasharray:none;stroke-dashoffset:3.00000489"><path
   style="color:#000000;-inkscape-font-specification:'Electronica Display Solid';fill:none;stroke:#000000;-inkscape-stroke:none;fill-opacity:1;stroke-opacity:1;stroke-dasharray:none;stroke-dashoffset:3.00000489"
   d="m 137.50391,101.07617 c -4.23179,0 -7.64844,3.43659 -7.64844,7.64844 0,4.23081 3.41763,7.64844 7.64844,7.64844 4.0982,0 7.41211,-3.42248 7.41211,-7.64844 0,-0.38591 -0.019,-0.77761 -0.082,-1.15625 l -0.043,-0.25 h -0.25391 -7.57031 v 3.20703 h 3.34375 c -0.59536,1.04961 -1.59238,1.81055 -2.80664,1.81055 -1.99006,0 -3.61133,-1.62128 -3.61133,-3.61133 0,-1.99006 1.62127,-3.61133 3.61133,-3.61133 1.1706,0 2.20533,0.54525 2.86132,1.41992 l 0.1836,0.24414 3.20312,-2.46093 -0.18164,-0.23828 c -1.39804,-1.82979 -3.60073,-3.00196 -6.0664,-3.00196 z m 0,0.59961 c 2.16556,0 4.06236,1.02217 5.35546,2.57031 l -2.25195,1.72852 c -0.76949,-0.87857 -1.85701,-1.46094 -3.10351,-1.46094 -2.31666,0 -4.21094,1.89428 -4.21094,4.21094 0,2.31666 1.89428,4.21094 4.21094,4.21094 1.65104,0 3.08298,-1.07222 3.67773,-2.60157 l 0.16016,-0.4082 h -3.77344 v -2.00781 h 6.69141 c 0.03,0.26273 0.0566,0.52814 0.0566,0.80664 0,3.91333 -3.04797,7.04883 -6.8125,7.04883 -3.90848,0 -7.04883,-3.14035 -7.04883,-7.04883 0,-3.88795 3.14132,-7.04883 7.04883,-7.04883 z"
   id="path14300" />
<path
   style="color:#000000;-inkscape-font-specification:'Electronica Display Solid';fill:none;stroke:#000000;stroke-width:0.6;-inkscape-stroke:none;fill-opacity:1;stroke-opacity:1;stroke-dasharray:none;stroke-dashoffset:3.00000489"
   d="m 144.53748,107.61832 h -7.27006 v 2.60774 h 3.63503 c -0.55316,1.4224 -1.87679,2.41018 -3.39797,2.41018 -2.15336,0 -3.91161,-1.75825 -3.91161,-3.91161 0,-2.15336 1.75825,-3.91161 3.91161,-3.91161 1.26436,0 2.39043,0.59267 3.10163,1.54094 l 2.72628,-2.09409 c -1.34339,-1.75825 -3.45723,-2.88432 -5.82791,-2.88432 -4.06965,0 -7.34908,3.29918 -7.34908,7.34908 0,4.06965 3.27943,7.34908 7.34908,7.34908 3.93137,0 7.11202,-3.27943 7.11202,-7.34908 0,-0.37536 -0.0198,-0.75071 -0.079,-1.10631 z"
   id="path14302" />
</g>
<g
   id="path9638"
   style="fill:none;fill-opacity:1;stroke:#000000;stroke-opacity:1;stroke-dasharray:none;stroke-dashoffset:3.00000489">
  <path
     style="color:#000000;-inkscape-font-specification:'Electronica Display Solid';fill:none;stroke:#000000;-inkscape-stroke:none;fill-opacity:1;stroke-opacity:1;stroke-dasharray:none;stroke-dashoffset:3.00000489"
     d="m 145.89648,100.45117 v 15.68555 h 4.39258 v -6.60742 l 8.06055,7.46875 V 101.3125 h -4.39258 v 0.30078 6.30664 z m 0.59961,1.375 8.06055,7.4668 v -7.38086 H 157.75 v 13.71094 l -8.06055,-7.4668 v 7.38086 h -3.19336 z"
     id="path9799" />
  <path
     style="color:#000000;-inkscape-font-specification:'Electronica Display Solid';fill:none;stroke:#000000;stroke-width:0.6;-inkscape-stroke:none;fill-opacity:1;stroke-opacity:1;stroke-dasharray:none;stroke-dashoffset:3.00000489"
     d="m 154.25722,101.61262 v 6.99348 l -8.06028,-7.46762 v 14.69817 h 3.79307 v -6.99349 l 8.06029,7.46762 v -14.69816 z"
     id="path9801" />
</g>
<g
   id="path9640"
   style="fill:none;fill-opacity:1;stroke:#000000;stroke-opacity:1;stroke-dasharray:none;stroke-dashoffset:3.00000489">
  <path
     style="color:#000000;-inkscape-font-specification:'Electronica Display Solid';fill:none;stroke:#000000;-inkscape-stroke:none;fill-opacity:1;stroke-opacity:1;stroke-dasharray:none;stroke-dashoffset:3.00000489"
     d="m 166.07031,101.07617 c -1.9489,0 -3.49666,0.40973 -4.57422,1.23047 -1.07755,0.82074 -1.65234,2.05682 -1.65234,3.57227 0,1.52244 0.56203,2.54477 1.39648,3.17968 0.83446,0.63492 1.90363,0.89898 2.94336,1.07227 1.03974,0.17329 2.0626,0.25545 2.78125,0.45508 0.35933,0.0998 0.63533,0.22941 0.80469,0.38281 0.16936,0.1534 0.25391,0.31784 0.25391,0.60156 0,0.31725 -0.12321,0.52177 -0.43555,0.70313 -0.31234,0.18136 -0.82938,0.30078 -1.51758,0.30078 -0.68272,0 -1.18584,-0.13548 -1.49609,-0.34766 -0.31025,-0.21217 -0.45508,-0.48264 -0.45508,-0.89453 v -0.29883 h -4.39258 v 0.29883 c 0,1.59196 0.58056,2.88617 1.67774,3.74805 1.09718,0.86188 2.67643,1.29297 4.66601,1.29297 1.97738,0 3.55424,-0.40359 4.6543,-1.22071 1.10006,-0.81711 1.69141,-2.05516 1.69141,-3.58203 0,-1.52244 -0.56203,-2.54477 -1.39649,-3.17968 -0.83445,-0.63492 -1.90362,-0.89898 -2.94336,-1.07227 -1.03974,-0.17329 -2.06259,-0.25545 -2.78125,-0.45508 -0.35932,-0.0998 -0.63533,-0.22941 -0.80469,-0.38281 -0.16935,-0.1534 -0.25195,-0.31784 -0.25195,-0.60156 0,-0.32201 0.1202,-0.52832 0.41211,-0.70703 0.29191,-0.17872 0.77314,-0.29688 1.41992,-0.29688 0.64099,0 1.11176,0.13422 1.40235,0.34375 0.29058,0.20953 0.43164,0.48255 0.43164,0.89844 v 0.29883 h 4.39257 v -0.29883 c 0,-1.59066 -0.56736,-2.88331 -1.64453,-3.7461 -1.07716,-0.86279 -2.63105,-1.29492 -4.58203,-1.29492 z m 0,0.59961 c 1.86186,0 3.27407,0.41677 4.20703,1.16406 0.85922,0.68822 1.29247,1.69373 1.36328,2.97657 h -3.28515 c -0.0813,-0.41841 -0.1905,-0.83828 -0.53125,-1.08399 -0.43544,-0.31398 -1.03176,-0.45703 -1.75391,-0.45703 -0.71634,0 -1.30026,0.11899 -1.73437,0.38477 -0.43411,0.26578 -0.69922,0.71102 -0.69922,1.21875 0,0.42747 0.17325,0.79513 0.45117,1.04687 0.27792,0.25174 0.63944,0.40245 1.04688,0.51563 0.81487,0.22635 1.83878,0.30125 2.84375,0.46875 1.00496,0.16749 1.97866,0.42708 2.67773,0.95898 0.69907,0.5319 1.16016,1.31954 1.16016,2.70117 0,1.37721 -0.4947,2.39061 -1.44922,3.09961 -0.95452,0.70901 -2.40216,1.10352 -4.29688,1.10352 -1.90227,0 -3.34441,-0.41782 -4.29687,-1.16602 -0.87714,-0.68903 -1.31665,-1.69303 -1.38867,-2.97461 h 3.28906 c 0.086,0.42171 0.20381,0.84393 0.56054,1.08789 0.45528,0.31135 1.07651,0.45313 1.83594,0.45313 0.75396,0 1.36518,-0.11967 1.81836,-0.38281 0.45319,-0.26315 0.73438,-0.70822 0.73438,-1.22071 0,-0.42747 -0.1713,-0.79513 -0.44922,-1.04687 -0.27792,-0.25174 -0.64139,-0.40245 -1.04883,-0.51563 -0.81487,-0.22635 -1.83683,-0.30125 -2.8418,-0.46875 -1.00496,-0.16749 -1.98061,-0.42708 -2.67968,-0.95898 -0.69908,-0.53191 -1.15821,-1.31955 -1.15821,-2.70117 0,-1.36887 0.48149,-2.38344 1.41406,-3.09375 0.93258,-0.71032 2.34702,-1.10938 4.21094,-1.10938 z"
     id="path9805" />
  <path
     style="color:#000000;-inkscape-font-specification:'Electronica Display Solid';fill:none;stroke:#000000;stroke-width:0.6;-inkscape-stroke:none;fill-opacity:1;stroke-opacity:1;stroke-dasharray:none;stroke-dashoffset:3.00000489"
     d="m 163.93745,105.87982 c 0,-0.82973 0.77047,-1.30386 2.1336,-1.30386 1.36314,0 2.13361,0.55315 2.13361,1.54093 h 3.79307 c 0,-3.04236 -2.11385,-4.74134 -5.92668,-4.74134 -3.81283,0 -5.92668,1.61996 -5.92668,4.50427 0,5.80815 8.17882,2.84481 8.17882,5.68962 0,0.82973 -0.80998,1.30387 -2.25214,1.30387 -1.44216,0 -2.25214,-0.55316 -2.25214,-1.54094 h -3.79307 c 0,3.04236 2.15336,4.74134 6.04521,4.74134 3.8721,0 6.04522,-1.6002 6.04522,-4.50427 0,-5.80815 -8.17882,-2.84481 -8.17882,-5.68962 z"
     id="path9807" />
</g>
<path
   style="fill:none;fill-opacity:1;stroke:#000000;stroke-width:0.544747;stroke-dasharray:none;stroke-dashoffset:11.3386;stroke-opacity:1;paint-order:stroke markers fill"
   id="path16903"
   sodipodi:type="arc"
   sodipodi:cx="84.66124"
   sodipodi:cy="60.677021"
   sodipodi:rx="10.621"
   sodipodi:ry="12.811"
   sodipodi:start="0"
   sodipodi:end="1.0060593"
   sodipodi:arc-type="slice"
   d="M 95.28224,60.677021 A 10.621,12.811 0 0 1 90.345532,71.498849 L 84.66124,60.677021 Z" />
<path
   id="path16905"
   style="fill:none;fill-opacity:1;stroke:#000000;stroke-width:0.703443;stroke-dasharray:none;stroke-dashoffset:11.3386;stroke-opacity:1;paint-order:stroke markers fill"
   d="m 84.725008,51.557767 a 7.2932739,9.1112366 0 0 0 -6.844027,5.968111 c 1.463461,0.0586 2.92585,0.14493 4.389913,0.183968 1.471247,0.0114 2.942386,0.0064 4.413684,0.0083 0.916532,0.0072 1.832738,-0.03423 2.74867,-0.0615 0.721759,-0.01925 1.443379,-0.02728 2.165242,-0.03359 a 7.2932739,9.1112366 0 0 0 -6.873482,-6.065263 z m -6.992855,6.526734 a 7.2932739,9.1112366 0 0 0 -0.30024,2.584338 7.2932739,9.1112366 0 0 0 7.293095,9.111588 7.2932739,9.1112366 0 0 0 7.293612,-9.111588 7.2932739,9.1112366 0 0 0 -0.276469,-2.483569 c -0.764189,0.0064 -1.528401,0.01479 -2.292367,0.03514 -0.921757,0.02743 -1.84336,0.06879 -2.765722,0.06149 -1.476081,-0.0019 -2.952645,0.003 -4.428671,-0.0088 -1.508655,-0.04039 -3.015286,-0.129987 -4.523238,-0.188618 z" />
<path
   id="path16905-3"
   style="font-size:19.7556px;font-family:'Electronica Display Solid';-inkscape-font-specification:'Electronica Display Solid';fill:none;fill-opacity:1;stroke:#000000;stroke-width:0.531056;stroke-dasharray:none;stroke-dashoffset:11.3386;stroke-opacity:1;paint-order:stroke markers fill"
   d="m 84.653695,53.727144 a 5.4459724,6.954144 0 0 0 -4.88239,3.883484 c 0.832921,0.0391 1.666107,0.07699 2.499589,0.09922 1.471247,0.0114 2.942386,0.0064 4.413684,0.0083 0.916532,0.0072 1.832738,-0.03423 2.74867,-0.0615 0.04099,-0.0011 0.082,-0.0016 0.12299,-0.0026 a 5.4459724,6.954144 0 0 0 -4.902543,-3.926892 z m -5.075143,4.439005 a 5.4459724,6.954144 0 0 0 -0.371037,2.515092 5.4459724,6.954144 0 0 0 5.44618,6.954098 5.4459724,6.954144 0 0 0 5.446179,-6.954098 5.4459724,6.954144 0 0 0 -0.354501,-2.467549 c -0.09852,0.0023 -0.197079,0.0041 -0.295589,0.0067 -0.921757,0.02743 -1.84336,0.06879 -2.765722,0.06149 -1.476081,-0.0019 -2.952645,0.003 -4.428671,-0.0088 -0.892785,-0.0239 -1.784813,-0.06509 -2.676839,-0.10697 z" />
<path
   id="path16903-1"
   style="font-size:19.7556px;font-family:'Electronica Display Solid';-inkscape-font-specification:'Electronica Display Solid';fill:none;fill-opacity:1;stroke:#000000;stroke-width:0.465121;stroke-dasharray:none;stroke-dashoffset:11.3386;stroke-opacity:1;paint-order:stroke markers fill"
   d="m 84.643359,49.571842 a 9.0109386,11.120795 0 0 0 -8.618078,7.88324 c 0.284231,0.01209 0.568257,0.02332 0.852144,0.03566 1.79863,0.05144 3.594835,0.171148 5.393469,0.219108 1.471247,0.0114 2.942386,0.0064 4.413684,0.0083 0.916532,0.0072 1.832738,-0.03423 2.74867,-0.0615 0.856949,-0.02286 1.713704,-0.03102 2.570902,-0.03772 0.433433,-0.0036 0.866761,-6.2e-4 1.300179,0.0057 a 9.0109386,11.120795 0 0 0 -8.66097,-8.052738 z m -8.740035,8.441862 a 9.0109386,11.120795 0 0 0 -0.270784,2.678906 9.0109386,11.120795 0 0 0 9.010819,11.120768 9.0109386,11.120795 0 0 0 9.01082,-11.120768 9.0109386,11.120795 0 0 0 -0.231511,-2.50269 c -0.471306,-0.0075 -0.942532,-0.01119 -1.413867,-0.0072 -0.853076,0.0067 -1.706187,0.015 -2.559017,0.03772 -0.921757,0.02743 -1.84336,0.06879 -2.765722,0.06149 -1.476081,-0.0019 -2.952645,0.003 -4.428671,-0.0088 -1.801773,-0.04824 -3.60049,-0.167328 -5.402254,-0.219108 -0.316427,-0.01376 -0.632977,-0.02658 -0.949813,-0.04031 z" />
</g>
  </g>
</svg>
