<?xml version="1.0" encoding="UTF-8" standalone="no"?>
<svg
   version="1.1"
   id="Layer_1"
   x="0px"
   y="0px"
   viewBox="0 0 883.02945 1534.9747"
   enable-background="new 0 0 923.384 1651.051"
   xml:space="preserve"
   width="883.02942"
   height="1534.9747"
   xmlns="http://www.w3.org/2000/svg"
   xmlns:svg="http://www.w3.org/2000/svg"><defs
   id="defs7" />
<path
   id="path2"
   style="fill:#2c6580;fill-opacity:0.0410959;stroke:#2b6580;stroke-width:1;stroke-dasharray:none;stroke-opacity:0.993151"
   d="m 509.432,-569.12618 c 0.5587,0.65717 4.38984,0.7227 0,0 z m 1.88867,0.52343 c 0.30452,1.94045 6.57295,0.0495 0,0 z m -45.15039,41.22071 c 0.0288,0.0512 0.0177,-0.007 0,0 z m -221.66015,11.24609 c 0.23585,0.50578 1.30491,1.67554 0,0 z m 227.15234,268.96484 c -7.46435,0.54494 4.87693,0.74031 0,0 z m -29.22461,125.38282 c -0.57328,2.35533 1.34827,-0.12431 0,0 z M 430.44763,-1.8410271 c -47.25968,-9.4419629 -17.54142,72.8343021 -64.5918,67.5761301 -25.10802,14.205982 -72.35601,0.271869 -77.57225,36.377047 10.40186,30.77981 -33.45354,15.02141 -23.40626,23.40039 35.175,14.99315 -18.2715,33.67122 -32.6465,11.33008 -26.79324,-0.0459 -107.92512,18.35763 -36.99558,4.96474 21.67341,-10.12502 97.62203,1.15847 55.15377,31.79308 -27.57251,10.253 -31.44095,-0.18877 -36.69726,14.33008 -37.93562,8.60501 -76.55404,-9.13134 -109.88293,11.82538 -20.75243,8.91453 -70.447518,16.78938 -70.287094,5.99884 21.357972,22.74957 33.878438,-5.24525 57.860373,0.7763 37.718841,-25.89432 76.024551,-11.75873 118.204081,-16.99311 53.78068,-10.09513 -16.15969,14.57296 -29.19336,33.28516 -21.78579,11.07223 39.05421,-32.8807 56.56711,-30.02546 1.46854,30.73424 -59.26994,50.79329 -86.06466,56.95764 -19.52967,17.65853 -56.91945,3.16637 -66.796501,28.46239 5.223998,29.54383 -21.072788,48.3929 -47.409075,54.75192 -16.214261,7.14721 45.537527,-13.496 49.189452,-32.57027 -6.519886,-20.27012 9.404042,-43.33391 37.504734,-39.44107 32.83023,-9.7387 64.51648,-18.8231 97.47959,-38.37581 7.68247,-31.3408 62.9425,-24.19189 23.36919,-29.68512 13.25631,-38.93855 71.18663,-43.36837 94.08962,-14.61848 1.75777,36.86048 -95.66121,17.9295 -53.15212,21.21037 27.47327,26.71115 -93.891,36.87165 -19.67644,26.76069 17.67726,-19.38751 49.68618,-17.54767 60.47332,6.60071 -8.7444,10.01702 -24.07879,41.00696 -41.76168,50.47637 -36.92942,12.9546 7.7587,0.8023 16.38538,-10.56436 7.48465,-40.59491 69.28911,-51.44384 33.96819,-4.48649 -16.16474,34.8707 -77.53386,31.94293 -75.84571,71.14258 -47.69497,18.9962 -15.18806,-18.93795 -11.62127,-17.74576 -12.12294,34.77266 -36.17786,5.88093 -63.41974,10.10113 -24.53548,-11.8426 -55.9151,19.65478 -81.24414,2.02548 21.68443,18.15839 64.20022,-15.45853 92.96484,-0.12126 31.51933,-2.03852 32.22504,12.2818 19.83398,30.12092 -5.5707,38.15389 -3.43667,-13.09077 9.75,-16.5059 51.20855,-19.4072 0.47337,18.83896 -15.08201,33.1934 -31.28296,6.14923 -42.53012,18.54654 -57.55853,41.3416 -33.61445,-7.24737 -21.64793,27.2381 -40.51367,37.57201 -3.19375,24.53169 -20.790429,50.54165 -14.51955,73.5587 -3.372824,-33.79376 18.4653,-69.14117 29.82814,-97.4895 18.2512,-35.37457 24.43322,24.41531 25.90039,-12.32031 -0.47237,6.93868 4.36611,45.07224 32.91235,50.17231 24.17612,22.59293 27.89436,43.97079 39.34741,72.0015 -7.29781,15.02434 7.23433,31.12474 -8.73822,34.1569 -5.38583,1.97056 -24.198,14.58655 3.13284,0.0937 14.88024,-14.40202 -1.05956,-47.85171 -1.1582,-61.0761 -6.17259,-26.45593 -36.25674,-43.96726 -54.96094,-66.9746 -27.44554,-25.71794 30.86897,-42.62254 34.05712,-63.35266 21.35898,-7.3173 45.24635,-12.19339 60.9965,-29.46476 37.87637,-47.56524 28.93829,81.30937 -5.28607,34.89351 -0.50523,1.67198 36.21365,16.93831 6.56132,33.97072 -0.70223,17.23633 14.62598,-42.25984 29.14764,-14.60042 34.63253,3.49869 6.59217,45.45975 -1.91797,35.78911 3.04259,-37.2323 -1.21423,-39.14424 -1.72851,2.5683 13.49077,35.30567 -19.95697,44.75272 -45.28321,45.7229 15.02359,-5.76225 48.80607,-5.18413 23.15821,11.2524 -46.61488,24.60168 19.24062,-1.20512 12.70898,-14.9064 13.66057,-31.83988 31.68788,-74.90263 56.57227,-47.0527 11.77386,10.72491 -19.78155,72.32972 -30.17492,24.89514 8.60911,-9.79829 -14.89257,37.78624 -5.81922,16.94906 10.19263,7.43568 -7.61149,43.95008 7.85748,15.5625 -26.06623,6.11438 98.42321,-55.4383 50.76557,-30.832 10.22978,35.97948 -28.59336,45.86443 -43.68359,71.3355 4.642,34.07768 -9.91103,58.86613 -13.80289,90.9414 -15.64867,27.96648 -25.56119,31.12954 0.75,5.334 1.95959,-30.87179 18.15925,-53.51458 13.92067,-84.45276 -3.1073,-36.34693 62.41213,-51.28022 15.74735,-14.44024 8.30147,31.39687 22.86065,64.18461 20.95892,97.7207 3.97345,5.83539 -3.34463,5.37204 -9.24801,31.6253 -6.31686,26.64531 -17.27315,55.60975 -5.49766,79.42519 -3.53966,36.38146 14.09985,57.40371 38.91728,82.06453 42.98939,11.09944 6.27145,48.771 -2.53866,68.49657 -31.84832,8.92749 -6.05342,44.20932 -9.39456,58.039 -13.13483,-33.19101 -0.40372,-48.63823 18.09162,-74.35511 21.55055,-16.85817 20.64449,-47.2597 -8.34755,-59.32999 -23.96346,-16.2636 -28.83747,-36.18664 -35.2801,-60.27253 -15.40865,-38.62316 6.04336,-72.77745 15.0457,-108.56589 14.60702,-23.61809 -10.18028,-85.67643 17.10193,-86.14276 0.54523,31.97565 -11.20081,98.95959 1.50959,33.61759 0.41313,-24.41771 -8.27519,-79.73089 10.15233,-75.166 26.62483,1.66941 28.69383,8.8461 23.24801,32.1673 -1.68083,-34.81484 23.58566,-16.31898 6.41407,-36.9004 28.13119,-15.31215 30.98373,31.11849 20.51534,48.16783 -1.9639,29.1956 -12.36733,53.09991 -18.12277,80.10377 -14.67413,15.10701 -3.53915,47.58109 16.29072,54.46666 -11.59982,11.93769 13.62847,70.0553 2.89817,56.18668 10.17729,-17.31198 -18.18,-39.23453 0.36669,-54.83472 -24.15879,7.61792 -27.55591,-72.62315 -23.50082,-43.80112 5.20759,-23.57152 24.21811,-47.37613 18.63083,-74.584 5.13553,-39.46046 26.18298,-29.54198 19.40234,0.9707 -28.02733,11.44635 -2.4757,37.65274 -18.14062,56.2069 5.26989,17.60944 6.4698,-25.69718 15.51367,14.7734 -9.53396,28.89411 24.51443,56.17237 45.10156,69.4453 -8.62267,19.99086 -1.21811,43.58473 -11.85156,60.93749 -11.45344,21.35743 -15.53293,45.09469 -26.94339,67.5 -6.99096,22.66558 10.62257,43.7678 28.02344,62.8028 -10.28897,-22.58581 -43.92281,-43.60589 -22.16817,-67.6875 2.21091,-30.99438 29.51955,-58.26183 26.54092,-85.20709 6.81892,-23.74743 18.29292,-45.9898 -14.23567,-59.63191 -25.24938,-17.88953 -20.0506,-36.94277 -28.83074,-67.89909 -11.13712,-30.44653 43.66322,33.45033 8.41667,-4.04471 -0.0266,-5.11352 3.64843,-66.16041 12.13805,-51.63499 -3.69284,-11.28764 -1.82446,-13.18674 7.32031,-14.5276 -0.64141,-3.4386 9.2506,28.01873 1.48821,-1.67249 -3.81908,-22.15172 -18.72888,-35.75064 11.06264,-24.67551 21.26699,25.10259 0.54602,3.46891 9.43564,6.8435 15.17745,22.05074 45.01214,35.47911 46.21289,61.8907 15.95114,53.14183 2.92253,-23.82541 -15.93747,-34.0977 -17.73661,-14.61089 -35.80735,-36.7374 -48.32422,-53.8242 12.72114,-12.20225 1.35704,-55.5796 22.16212,-62.8516 13.42106,-6.3466 -3.90039,33.78883 -6.13669,50.9948 -11.86783,31.87926 9.31628,-9.33157 6.01569,-30.5885 20.96699,-28.04952 2.69199,33.97902 25.09176,27.6406 -4.27538,19.53882 -4.92833,41.19217 -0.32013,58.8027 6.0783,-22.6867 -11.40644,-20.74933 1.43164,-51.152 11.27565,42.29964 -5.19515,3.7489 5.0332,-4.9176 -12.71743,6.46494 26.26735,-29.14757 4.20704,-40.0371 10.06858,-30.41931 4.01847,-36.41836 6.62277,-61.86384 -13.1136,-21.70605 -26.33425,-36.24878 -14.80638,-59.88027 -7.91927,-35.30475 -6.52487,-21.21531 -10.541,-51.92394 24.44501,-46.2922 11.03586,22.91168 33.45554,43.81327 -0.91565,27.85577 -32.81059,-45.7459 -10.20559,-1.68613 20.3669,20.85499 -4.13005,40.86746 21.91992,58.0527 16.27616,4.17908 -34.66293,56.51933 -5.85095,20.95025 34.88589,-32.35288 -3.03556,27.71585 10.6947,20.54396 -17.1129,23.24912 -6.93058,-2.78251 4.3496,9.5742 -17.71327,17.68669 22.75846,37.70636 -10.55859,50.813 -10.99665,23.71698 -25.33212,48.99609 3.19922,71.0195 11.50534,26.55847 1.9653,60.07297 -3.90626,81.9004 -6.46546,21.85268 2.01211,60.31338 0.44926,66.1426 5.69625,-23.0157 -7.52014,-51.4777 4.09369,-63.4258 1.07485,-27.35186 20.00426,-67.05358 -5.94027,-94.06035 -22.81295,-20.64632 0.96119,-40.48451 5.47548,-63.02945 30.17738,-14.41411 -0.31572,-36.47258 7.04298,-58.3067 43.06607,0.61435 10.22951,42.40493 23.10508,63.38264 10.69357,25.03269 28.42864,56.09646 11.61952,83.56656 3.63516,15.86591 -10.98541,40.06534 -24.36718,53.2419 9.82686,40.57356 -2.41227,16.81749 3.81841,-9.2675 33.16975,-37.62679 9.83616,57.23911 16.45314,18.1835 6.54208,-39.81051 9.2099,-14.77561 13.36331,4.8399 19.18758,7.68494 5.09674,46.6562 25.04098,57.0389 44.77666,21.89028 13.10516,7.88159 -6.91807,-6.1144 -4.00634,-36.14737 -7.82855,-33.32976 -18.73433,-63.711 -4.08115,-21.80421 -15.53403,-43.7416 8.64453,-15.0117 31.05404,13.06203 -4.01811,70.56888 17.74189,21.416 -16.57536,-25.81905 -45.53587,-37.71897 -25.77148,-71.8222 1.41977,-20.45663 -3.59415,-49.58055 -19.78516,-69.0996 -9.67691,-25.51479 21.55902,-55.09498 -17.03904,-71.0684 19.46996,-37.98696 31.90106,-27.56803 46.98828,9.416 5.43253,-12.83255 -37.56824,-38.13481 -24.40953,-52.49736 7.87081,-33.45235 44.33664,-2.76408 62.83336,-3.54815 34.69035,15.71287 -4.4681,3.70061 -14.1152,20.8245 -14.23683,3.46128 67.23077,-29.56357 45.14819,13.23472 32.2966,23.76955 -13.41675,32.0624 -19.09741,-0.28942 -19.71653,-37.38344 13.40299,32.9919 30.85513,32.97711 7.34676,21.58293 36.39367,65.11299 4.65852,15.5635 -1.45148,-17.91611 -15.15254,-51.36558 13.96289,-20.1326 28.50688,15.99963 56.60262,56.09175 71.44922,79.3926 11.2547,29.93632 2.82713,-28.83502 -21.1976,-27.74789 -14.34503,-37.45543 -58.96361,-49.26517 -67.34342,-84.91232 -1.32472,-13.38991 -5.96633,-41.29254 10.36716,-51.5922 32.56864,-4.98445 48.99837,3.32609 45.34752,12.68229 15.73021,28.31239 -5.05605,0.22654 23.81654,30.87821 5.24239,9.08073 11.4498,59.92367 12.63409,44.79367 -9.34034,-22.97932 -4.98302,-45.49345 -23.39581,-65.52027 25.72202,8.9689 38.8119,6.46185 60.19922,27.2852 30.89563,12.28582 -44.28157,-28.82739 -22.08984,-22.5586 -14.54423,9.48409 52.55404,-24.24158 14.20944,-5.92516 -25.27981,3.11978 -65.97165,-54.8103 -12.77936,-29.84211 36.8797,6.43442 24.27667,30.9697 42.59732,27.60087 18.644,4.72923 53.60784,62.66067 18.95899,19.0273 -3.53359,-26.64253 -38.3402,-22.33604 -34.82422,-38.4218 16.542,5.58543 -48.74753,-8.61021 -41.04589,-38.11963 -25.6568,-34.65503 68.70465,41.54927 20.42104,8.10232 -10.6522,-19.40947 -43.83634,-20.79191 -21.44124,-34.5456 -18.04133,23.57829 -38.15577,-55.33298 -3.31866,-13.30619 18.53101,3.2169 85.13903,53.5369 62.90041,36.22454 -21.67412,-13.48268 -73.76959,-51.99159 -21.36914,-17.24025 19.17764,2.88416 45.77646,9.74389 58.2292,23.47514 38.34446,11.10716 -21.32649,-16.48214 -37.49681,-17.33048 -27.45313,-13.31623 -56.11288,-23.10605 -81.33984,-39.39063 18.80181,-29.46104 8.85534,-5.34696 11.18157,-20.75545 10.73347,-37.08714 66.52067,-26.01352 32.59968,-34.48087 -25.15327,7.32777 -30.87688,24.51824 -54.70899,37.71706 -17.84662,4.56135 -60.88172,-6.20692 -56.52516,-33.64258 34.48596,2.19587 11.48841,9.93635 -1.63877,-10.23827 10.47943,9.06297 -23.6841,5.18156 -27.26562,-15.64453 13.1003,35.44329 -25.70637,-15.78874 -42.58221,-19.82096 -27.57879,-7.42697 -53.17308,-55.28855 -2.09238,-45.83356 46.6761,-16.0688 -55.76809,18.22011 -73.28052,-8.25168 -27.4801,-9.10474 -60.00737,-15.65712 -76.63281,-40.636727 2.73103,-36.321757 -43.48372,-52.914021 -43.08203,-87.0292501 l -3.89063,0.008 -2.64648,-0.12305 z M 672.61755,198.10625 c -2.08662,-6.16496 -2.04364,0.458 0,0 z m -1.54883,-2.16797 c -5.39095,-6.79007 -10.90137,-6.02848 0,0 z M 517.48278,325.52617 c 0.038,2.25987 9.36672,3.67187 0,0 z m -27.12109,234.63675 c -0.78805,-0.44111 -0.75943,1.48245 0,0 z m -0.57812,0.4277 c -7.39182,20.0205 9.82701,24.16382 0,0 z M 231.33239,377.57501 c 0.61713,1.22025 4.29337,1.17503 0,0 z m -23.20312,8.4297 c -8.32771,5.79008 -23.66495,53.80023 -13.47656,32.1875 -1.82916,-12.96086 9.50691,-20.98376 13.47656,-32.1875 z m -59.3418,53.94141 c -7.56803,6.27484 0.7276,2.50611 0,0 z m -2.60937,3.3125 -11.48633,7.3887 z m -11.48633,7.3887 c -6.16498,2.33332 -1.03843,1.12656 0,0 z m 75.24414,-70.32041 c 0.1483,-0.20231 -0.10827,-0.0448 0,0 z m 41.05469,-62.07808 c 1.40494,-0.40815 -0.16313,-0.638 0,0 z m 0.48632,-0.38868 c 2.06763,-0.53063 4.36128,-3.38786 0,0 z m 3.04102,-1.49804 c 0.0716,0.0686 0.0661,-0.0928 0,0 z m 0.0508,-0.0156 c 15.0596,-5.16875 15.61565,-42.27646 8.47465,-5.85547 -2.32778,2.53884 -6.11949,3.88031 -8.47465,5.85547 z m 14.03125,-25.09961 c 0.27553,-0.26205 -0.23651,-0.21058 0,0 z m -31.6133,-57.91018 c -0.6201,-0.15725 -0.35084,1.3338 0,0 z m -0.35742,0.4707 c -10.04613,18.71056 -87.84147,36.5562 -35.5625,22.25388 10.88767,-7.84706 32.65316,-6.99874 35.5625,-22.25388 z m -23.42383,-56.54297 c -2.14953,-2.59776 -0.88542,0.1039 0,0 z m -1.14453,-0.94922 c -6.66161,-12.96482 -7.91229,-7.55966 0,0 z m -7.05078,-8.91406 c -0.40072,-0.6299 -2.31728,-0.91536 0,0 z m -1.02344,-0.58008 c -2.57238,-2.41876 -0.7792,-0.1233 0,0 z m -1.25977,-0.95703 c -4.92322,-3.22143 -7.19626,-1.82808 0,0 z m -4.79687,-1.41992 c -3.54942,-1.61847 -0.70318,1.3268 0,0 z m -1.61133,-0.12695 c -2.35292,-4.67769 -17.17056,-1.76234 0,0 z M 440.15857,33.871863 c 28.55454,16.157586 22.3805,41.796046 0,0 z m -13.2461,6.08594 c 18.71431,20.637293 14.21937,42.015331 0,0 z m -25.81055,7.38867 c -0.7063,4.665095 -3.40926,9.781184 0,0 z m 14.30469,0.82813 c 34.5238,35.929739 23.35443,40.017818 -7.20508,17.58398 10.4075,-3.189928 8.47776,-9.765039 7.20508,-17.58398 z m 50.36524,2.83203 c 17.47469,19.122943 10.81151,53.275847 3.1927,6.292563 l -3.19266,-6.292603 z m -13.78125,4.92578 c 26.77341,25.065154 5.19171,30.613185 3e-5,0 z m -6.48438,0.44141 c 10.27421,0.816995 -4.48768,17.411673 0,0 z m -48.65234,0.57617 c 0.55048,19.843569 -9.35236,4.601469 0,0 z m -20.20117,7.96679 c 35.56443,-3.953015 -47.66914,53.446397 -22.03653,40.786897 26.11974,-5.799222 -25.49947,92.14642 -50.7252,32.3889 -34.48421,-10.53866 -7.18143,-75.397018 32.48632,-59.982437 10.4534,-10.306023 26.65285,-6.684731 40.27541,-13.19336 z m -32.03125,42.994147 c -0.38548,-0.008 -0.0472,0.11602 0,0 z m -0.16602,0.0391 c -15.39082,-1.14172 -11.33928,1.59595 0,0 z m 97.17969,-40.984387 c 9.52688,-0.214275 -1.53997,11.463287 0,0 z m -35.99219,2.2461 c 39.81346,6.598147 -1.65611,30.300715 11.70121,53.806777 -13.76845,54.96032 -9.10005,-3.50784 -14.24805,-28.740407 l 1.31954,-12.616015 1.22733,-12.450385 z m -3.72852,0.0117 c 2.11217,6.227528 -5.88993,30.360806 0,0 z m -10.96875,0.13477 c -2.06891,52.056937 -49.46543,27.051276 0,0 z m 0.0117,5.61133 c 1.83856,11.87049 -9.11043,3.396584 0,0 z m 79.60157,4.68359 c 8.6578,12.283003 -3.39616,8.075433 0,0 z m -25.85157,0.0996 c 18.77512,9.4331 -13.39374,78.723047 -15.04882,46.589857 15.51442,-30.038465 -0.0441,-22.77545 15.04882,-46.589887 z m 31.46485,7.19727 c 7.69932,3.306334 -5.34348,3.514198 0,0 z m -76.14453,2.33203 c 1.63707,0.508619 -0.59152,5.304268 0,0 z m 73.38476,2.36328 c 29.1385,11.293707 -3.17941,32.724327 0,0 z m -15.53906,0.91406 c 14.79352,8.985527 -15.60749,16.121947 0,0 z m -30.85547,1.13282 c 3.98401,1.749573 -2.40335,2.829311 0,0 z m -0.51563,2.570314 c 10.58119,24.336133 -5.99263,11.131473 0,0 z m -5.36328,1.45898 c 12.13445,26.014903 -4.93298,45.281933 0,0 z m 64.55664,0.42969 c 33.6542,16.651833 48.25986,28.814063 3.29883,10.871093 z m -117.19726,1.48828 c 32.85545,-0.83234 -36.08998,60.398353 -4.46488,8.960943 4.35359,-1.63952 -3.22733,-11.324003 4.46488,-8.960943 z m 20.48633,0.931643 c 8.5207,11.99012 -12.73944,9.16285 0,0 z m 8.66601,0.56641 c 3.82082,3.72772 -3.61197,1.28498 0,0 z m 57.17578,3.04883 c 9.2651,0.57544 -11.98863,23.44706 0,0 z m -73.42187,2.5371 c -1.1096,14.7048 -13.87996,10.44761 0,1e-5 z m 13.80664,0.69532 c 12.95355,24.71158 -12.18948,35.97116 0,0 z m 65.54492,1.27344 c 11.90219,27.98449 10.69891,43.66472 -7.4281,64.98807 -24.04973,38.19281 -10.30453,-30.20938 4.99253,-16.19264 -1.73311,-0.51177 -9.92578,-41.16967 2.43557,-48.79543 z m 12.57031,0.4414 c 33.66447,4.88356 11.44259,49.79627 0,0 z m 15.27149,3.66992 c 40.56273,0.72812 5.73392,40.58783 0,0 z m -97.53906,0.67383 c 0.84591,11.97647 13.81525,50.56969 -14.14576,24.06054 4.64645,-7.99658 8.87403,-16.69776 14.14576,-24.06054 z m -8.47071,0.90625 c -2.71486,12.43156 -20.48204,9.11907 0,0 z m 86.2168,1.96094 c 22.61797,20.29628 -6.28307,19.2793 0,0 z m 52.54297,1.75976 c 39.47164,2.22789 -3.76474,18.16184 0,0 z m -149.78711,2.80079 c 0.79461,5.77135 -7.238,1.4162 0,0 z m 8.20703,1.56054 c -12.66697,18.31566 11.66729,41.76733 -19.32812,27.95209 -10.33512,-12.83817 14.40038,-19.45311 19.32812,-27.95209 z m 134.26172,1.4668 c 41.79404,11.58604 24.37769,38.40772 65.46094,51.68162 -21.43223,-9.90327 -57.44557,-22.66359 -80.54921,-38.06698 -11.4911,-6.03069 13.25752,-8.15318 15.08827,-13.61464 z m -62.47656,0.0996 c 17.86664,37.86554 -41.21711,40.23129 0,0 z m -79.97071,0.97851 c -4.79627,21.21825 -15.72494,2.63673 0,0 z m 170.37891,2.06055 c -3.62893,12.16438 -18.91592,-4.23438 0,0 z m 2.86523,0.38477 c 40.99543,-1.87771 52.9696,69.59165 10.33008,16.63867 -8.86096,-0.58783 -19.53513,-9.46013 -10.33008,-16.63867 z m 12.80078,0.44336 c 23.72414,1.91319 1.82598,8.42236 0,0 z m -195.20117,2.00976 c 3.57458,8.84604 -13.5267,9.76402 0,0 z m 62.28711,0.31445 c 7.19794,13.47323 -20.83523,22.62788 0,0 z m 143.625,1.22852 c 35.62959,5.69574 41.38167,53.59856 75.57955,56.06109 15.73403,27.12678 57.37219,29.03691 56.58064,56.56001 -32.95314,-23.48407 -9.52219,-14.67323 -46.51302,-16.53011 -29.78412,-18.4315 -33.91046,-41.3135 -56.78437,-59.65503 -20.26816,-13.84714 -1.7726,-12.67045 -28.8628,-36.43596 z m -287.23437,0.68359 c 8.61472,7.14011 -16.75669,23.10099 0,0 z m 211.07812,0.61133 c 9.04615,17.95537 69.42244,33.54649 25.49024,27.18746 -1.45525,-14.84729 65.39849,51.42072 44.9062,19.3262 -12.51327,16.08535 -61.34888,63.23095 -31.96893,15.22797 -12.10247,-23.01527 -27.01802,-47.13532 -23.82012,-38.16937 -6.33461,-4.13316 -44.47266,-20.58974 -14.60739,-23.57226 z m 19.17969,25.23047 c 0.74432,4.1231 4.87715,-1.08356 0,0 z m 2.1582,1.07227 c 0.73252,0.9039 0.66349,-2.02856 0,0 z m 0.33203,0.16015 c -0.11978,0.19456 0.57237,0.0668 0,0 z m 17.62696,5.53711 c -0.49686,-0.008 -1.24717,0.97025 0,0 z m -0.6543,0.36133 c -2.75387,1.50861 -2.38914,1.48973 0,0 z m -175.3457,-29.16406 c -1.19234,3.46987 -1.82222,-1.28786 0,0 z m -65.56446,0.19922 c 31.91899,7.65582 -31.82375,12.90676 0,0 z m 111.80469,3.01757 c 6.03814,5.67246 -4.57887,13.49748 0,0 z m -95.27539,1.46485 c 54.59528,34.19779 -34.67707,0.49777 -32.14683,10.26171 8.57176,-7.52845 22.24055,-4.59367 32.14683,-10.26171 z m 126.11133,2.03906 c 19.12647,16.24783 -13.62586,35.05099 0,0 z m -77.49024,0.4668 c 10.42467,17.27284 -6.23466,23.49493 0,0 z m 118.89649,0.94922 c 0.74966,5.3439 -4.15136,-0.81248 0,0 z m -44.60547,0.041 c 1.30975,13.67036 -7.84495,0.93071 0,0 z m -13.58203,0.74805 c 8.05795,7.02012 -9.0552,4.67416 0,0 z m 132.95117,0.01 c 40.12797,23.84637 -2.05516,20.37467 0,0 z m -68.09375,0.51953 c 18.67625,9.85089 37.88901,33.43793 11.79484,40.64721 -18.38901,-9.27187 -7.23225,-26.47255 -11.79484,-40.64721 z m -206.74609,2.19531 c -2.02288,12.41103 -14.81155,10.52948 0,0 z m 119.5039,2.29687 c 9.93956,4.75362 -8.44262,5.34856 0,0 z m -42.54687,1.13282 c 9.82506,9.98278 -7.10529,6.46664 0,0 z m 35.80078,0.34961 c 1.10501,15.11738 2.9341,53.46786 -14.92128,57.12361 -13.03637,-20.45586 -26.28246,-44.49743 14.92128,-57.12361 z m -38.10937,0.69726 c -1.97792,7.18671 -10.53877,4.39984 0,0 z m 74.17382,0 c 4.26288,2.68689 -1.32659,4.14736 0,0 z m -6.36914,0.89649 c 24.36106,13.40896 -19.57436,19.60238 0,0 z m 55.23242,1.15039 c -7.02517,28.40706 15.97194,65.69644 -5.60156,66.02537 -23.00637,-26.42658 -22.86085,-45.43086 5.60156,-66.02537 z m -69.86914,0.0273 c 16.27844,10.84908 -7.30993,13.33194 0,0 z m 6.96289,0.0527 c 1.63725,4.75346 -4.97053,-1.30301 0,0 z m -38.43164,1.34571 c -4.37313,7.73465 -11.1789,-0.90974 0,0 z m 75.07618,1.23047 c -7.53811,6.96072 -8.55462,-0.30532 0,0 z m 3.04101,0.66211 c -12.1791,38.959 -19.32764,9.18052 0,0 z m -100.95312,0.0937 c 12.18545,-0.42381 -6.85764,9.81329 0,0 z m -22.42383,0.26757 c 3.46431,2.56628 -4.18109,2.38314 0,0 z m 1.34961,0.0918 c 10.27639,-6.6e-4 10.09464,8.79454 0,0 z m 18.34179,0.0293 c -0.003,10.63862 -14.35838,0.15215 0,0 z m 133.04493,0.12304 c 4.67079,8.56616 -7.16186,17.50644 0,0 z m 60.23632,0.29883 c 63.81549,18.01595 -15.8423,27.75129 0,0 z m -271.88867,0.35938 c 1.07007,34.16349 -72.78594,31.98901 -13.21676,15.55273 3.76144,-5.48175 7.37012,-11.95973 13.21676,-15.55273 z m 93.73047,2.35742 c 4.47499,18.35969 -20.54718,-0.65775 0,0 z m 207.0586,0.25781 c 21.9995,16.47949 -19.91212,-2.85542 0,0 z m -135.79883,0.52344 c 6.60213,1.54135 -2.92383,6.91934 0,0 z m -37.26563,0.14648 c 15.7782,32.07381 -28.67906,66.69581 -1.98439,24.76758 5.44426,-9.9449 -21.18858,-19.77799 1.98439,-24.76758 z m 195.33399,0.65235 c 12.31793,11.92041 1.15268,11.87593 0,0 z m -239.72461,1.30273 c 4.28743,35.00719 -14.24419,7.52195 0,0 z m 223.66211,0.0625 c 18.50681,2.55726 6.66839,18.5173 0,0 z m -237.10352,0.50391 c 22.19575,-4.33137 -3.59285,29.45602 0,0 z m -5.42578,0.2832 c 7.97405,2.40857 -0.79632,16.57612 0,0 z m 256.5918,0.71485 c 5.18191,3.83698 -3.6739,4.38767 0,0 z m -185.33203,0.75781 c 11.87365,0.92283 -4.89155,11.28061 0,0 z m 25.10156,0.77343 c 8.55522,23.54412 -9.77498,7.26694 0,0 z m -75.9668,1.40626 c 13.44132,5.81602 -11.94319,20.80926 0,0 z m 175.85156,0.56445 c -4.52453,3.44228 -0.75533,0.83802 0,0 z m -89.29297,0.12109 c -0.23453,9.67272 -6.45786,3.38881 0,0 z m -17.95703,0.14649 c 13.60241,14.37462 -11.8735,6.81846 0,0 z m -60.47656,1.17382 c 4.44472,0.93727 -5.82839,9.78526 0,0 z m 50.1582,2.1836 c 8.15987,14.82229 -11.15762,4.31378 0,0 z m 172.7793,0.25 c 21.37238,9.55796 23.86607,24.49316 0,0 z m 14.23438,1.31445 c 14.34329,5.06379 1.35993,3.62987 0,0 z m -30.20508,0.32422 c 22.29307,-2.56935 -5.69367,17.69839 0,0 z m -166.01367,0.88672 c 0.78873,5.48672 -2.39107,-0.96619 0,0 z m 109.93164,0.57226 c 30.75787,7.50436 -1.48557,74.88087 -13.10793,36.92557 -12.47737,-16.36476 -4.64356,-26.37416 13.10793,-36.92557 z m -30.24414,0.50391 c 16.59165,16.04152 -7.47937,23.2861 0,0 z m -125.45118,0.0273 c 3.81026,6.50129 -6.39607,7.82639 0,0 z m -13.86914,0.34961 c 2.06614,1.5502 -1.93291,7.89953 0,0 z m 238.51953,0.85938 c 4.47669,12.72318 41.2395,72.24411 17.4467,30.42868 -34.25647,-57.59632 31.32738,8.54786 44.85912,31.46202 39.76678,36.25075 -13.04285,89.2782 -35.36723,32.30117 11.00286,-37.72222 -72.63162,-64.69946 -26.93861,-94.19187 z m -236.06054,0.36719 c 21.8752,17.67303 -15.84216,38.03289 0,0 z m 259.64453,1.71679 c 12.39565,3.07092 -2.19547,5.59187 0,0 z m -187.09766,0.28907 c 17.74159,-2.16597 4.98933,22.76531 0,0 z m -11.79297,0.96679 c 5.73532,11.57469 0.58732,-2.93422 2e-5,3e-5 z m -51.59375,1.4961 c 3.53022,-0.3275 -0.31845,2.9056 0,0 z m 2.37891,1.22461 c 5.90228,7.59403 -6.71251,0.16871 0,0 z m 74.16211,0.42968 c 4.87358,0.50902 -4.52712,11.08058 0,0 z m 162.42383,0.37891 c 11.00424,3.47468 5.62953,9.22933 0,0 z m -154.92188,1.29102 c 11.93173,0.98692 6.88819,29.13168 0,0 z m -5.59179,0.10351 c 2.8968,1.76099 -2.70689,1.3288 0,0 z m 131.58789,0.66016 c -1.74958,35.66047 57.73137,67.56347 38.70151,89.90881 -50.79942,-49.35333 41.0041,41.17684 3.61925,35.50391 -39.29952,4.69888 -34.32147,-43.51963 -58.72118,-35.358 -4.86207,-24.52227 -34.3648,-37.7524 4.49956,-20.95872 70.58059,9.73051 -66.77202,-1.80689 -23.69922,-37.17816 8.05629,-15.56766 21.05785,-23.41999 35.60008,-31.91784 z m -73.68946,0.0527 c 2.61339,5.82576 -4.86165,7.81361 0,0 z m -135.97851,0.22266 c 8.37825,11.77397 10.97955,66.24393 -5.24374,34.78102 6.18579,-9.59986 5.31476,-22.82757 5.24374,-34.78102 z m 4.95117,0.43945 c 2.95566,0.39727 -0.8381,6.83654 0,0 z m 45.06055,0.0488 c 4.90882,0.68128 -1.44281,4.40109 0,0 z m -160.10547,2.10742 c 2.72884,9.93419 -11.51778,1.14488 0,0 z m 164.14453,0.87305 c 3.4276,3.09488 -3.82221,2.17713 0,0 z m 70.24805,0.26367 c 15.71142,15.21894 -14.7158,7.9544 0,0 z m 127.17382,0.0859 c 5.15207,4.93685 1.01894,1.25505 0,0 z m -265.53515,0.4375 c 4.41913,16.00472 11.53281,22.03244 -10.83594,39.50782 22.77839,-35.49087 -5.40601,14.18231 -21.59361,-17.75672 -30.67586,-6.44477 27.53476,-19.18333 32.42955,-21.7511 z m -2.9336,21.68359 c 10.82313,-11.86768 -0.34569,-3.75665 0,0 z M 443.3656,192.33281 c 0.80093,0.31117 2.86684,4.6074 0,0 z m 40.40625,0.13086 c 5.33834,7.13341 -2.07402,12.05553 0,0 z m -81.26563,1.76172 c 16.78311,2.64336 -17.75487,20.22128 0,0 z m -51.50781,0.92969 c 2.93738,5.24266 -3.57897,4.40146 0,0 z m 63.84375,1.70703 c 1.68598,11.93693 -16.63036,5.38547 0,3e-5 z m -53.9707,0.10547 c 22.46798,4.79281 4.10776,43.79921 0,0 z m -12.00782,1.16796 c 5.03452,18.07877 -12.87377,0.1723 0,0 z m 11.23243,1.53711 c 20.05612,41.03595 -17.79605,26.27811 0,0 z m 78.41601,0.51954 c 9.24089,-0.39829 2.16703,6.9089 0,0 z m 6.71094,1.41796 c 11.69771,13.82625 2.16239,33.44818 0,0 z m 172.92383,0.91602 c 4.55653,6.65631 1.22228,1.20203 0,0 z m -132.33789,0.10156 c 0.97626,5.03607 -5.13817,-1.93479 0,0 z m 1.3457,0.28906 c 3.58628,7.44723 -6.07244,5.38613 0,0 z m -60.01367,0.68555 c 10.79715,5.59862 -0.76231,3.88639 0,0 z m -7.32422,0.59375 c -5.14066,21.92051 -18.95938,1.60005 0,0 z m 19.97265,0.32031 c 3.38393,-0.43065 -0.58469,2.88919 0,0 z m 12.68165,0.41407 c 22.97219,17.68366 2.94824,31.57134 0,0 z m -47.94336,1.58398 c -1.98149,13.69421 -12.81019,-0.15655 0,0 z m 37.67578,0.50977 c 11.9488,16.83997 -8.33431,1.75108 0,0 z m -21.44336,1.16015 c 9.06275,20.13778 -24.05835,24.32863 0,0 z m -73.39649,0.38477 c 10.91147,18.38637 -24.05438,18.00249 0,0 z m 43.97071,0.66992 c -10.25138,9.62435 -22.3863,10.69527 0,0 z m 89.6914,0.50781 c 7.12262,44.3772 -25.29112,14.13102 0,0 z m -43.83398,0.10547 c 12.10316,17.22364 -3.85957,6.69689 0,0 z m -43.38281,0.90235 c 13.20506,46.9546 -43.35829,18.25605 0,0 z m 93.91601,0.21484 c 27.12894,25.16829 -6.56429,38.68144 0,0 z m 2.54297,0.0606 c 8.32086,2.89173 -0.65791,2.79021 0,0 z m -81.9375,2.26171 c 5.27979,13.84327 -9.64674,13.54335 0,0 z m -2.95898,0.23243 c -0.58582,9.77293 -5.14449,-0.44006 0,0 z m 36.02343,1.1289 c 23.71834,17.37195 1.76369,18.6574 0,0 z m -14.04687,0.86524 c 4.37063,2.92246 -6.05624,7.77563 0,0 z m 257.9082,1.30859 c 29.01915,0.93942 23.88752,45.59614 0,0 z m -249.94726,0.67774 c 9.82753,4.10762 -3.05368,10.31912 0,0 z m -6.61524,0.44921 c 2.97896,8.27214 -4.04144,6.40303 0,0 z m -18.87109,0.25 c 10.12925,24.34547 -9.27039,23.10346 0,0 z m -9.19336,1.8086 c 4.55145,5.12366 -6.95199,9.38382 0,0 z m 23.17187,0.38672 c 18.60759,27.44096 -23.24183,35.1453 0,0 z m 26.99024,0.41992 c 5.78255,-1.67759 1.45444,9.06809 0,0 z m -77.50586,0.79101 c -0.22255,5.82753 -7.70137,-0.66571 0,0 z m -27.8125,0.27539 c 30.91427,27.01942 -40.55427,16.93336 0,0 z m 30.91797,0.10157 c 3.65416,10.96814 -10.95542,5.75693 0,0 z m 124.56445,0.15039 c 7.7249,11.66467 -5.734,12.84412 0,0 z m 13.12109,0.8164 c 12.57623,19.40574 -21.3363,7.10704 0,0 z m -74.91015,0.75586 c 0.78818,8.18272 -4.47336,-1.17233 0,0 z m 18.25586,0.12891 c 12.81978,0.55104 -3.83962,7.03443 0,0 z m -16.18946,0.76953 c 18.87079,7.44401 -9.77619,15.39594 0,0 z m -75.56445,0.0469 c 3.58868,4.71574 -7.96271,5.59873 0,0 z m 61.22852,1.01562 2.00781,3.45313 z m -23.99219,0.0293 c 2.56028,16.89949 -19.12297,17.9409 0,0 z m 60.75781,0.41797 c 2.34451,2.12506 -2.34189,1.51168 0,0 z m -93.45117,0.23046 c 25.21131,33.49074 -21.29351,23.56779 0,0 z m 113.57422,0.0898 c 10.66171,9.9684 -6.01845,14.55739 0,0 z m 322.04101,1.18555 c -2.26376,9.85973 -10.35708,-2.83275 0,0 z m -349.18945,0.0586 c 16.36163,1.97129 -9.19857,5.61831 0,0 z m -52.08594,1.21289 c 5.61017,2.42675 -6.10959,8.08417 0,0 z m -72.05273,0.082 c 5.3671,5.58932 -9.13823,8.28713 0,0 z m 136.45898,0.0723 c 2.65198,1.35992 -2.84151,0.6345 0,0 z m -37.62695,0.30468 c 2.78232,0.14267 -0.90777,3.15297 0,0 z m -68.56445,0.16797 c -3.92079,13.59011 -12.02074,5.49859 0,0 z m 312.28906,1.01172 c 28.7334,0.37309 42.58683,49.4887 9.32615,17.20117 -12.63204,-0.74975 -44.20172,-17.81788 -9.32615,-17.20117 z m -242.20313,0.39258 c 2.74956,0.33092 -0.45565,2.36034 0,0 z m 71.50586,0.0684 c 19.42223,19.23504 -0.10769,12.73248 2e-5,0 z m 285.77344,0.82617 c 18.27437,18.79286 -59.24749,61.15759 -13.37695,18.55662 3.15039,-13.14658 14.61018,-4.11597 13.37695,-18.55662 z M 431.85974,232.161 c 7.8882,6.80894 -5.69956,16.80225 0,0 z m 38.36328,0.0332 c 30.75798,39.52827 -28.20316,31.20249 -3.75529,1.07253 z m -12.35156,0.01 c 20.58536,24.7427 -34.87461,3.61826 0,0 z m 42.89648,1.69336 c 29.70754,22.20332 -26.41924,7.02547 0,0 z m -60.58008,0.34766 c 7.15812,-1.80409 -1.45371,13.99375 0,0 z m -25.86719,0.22266 c 19.0303,21.28193 -2.43722,61.82357 -7.74143,25.35461 2.50097,-8.73372 6.20177,-17.63615 7.74143,-25.35461 z m 59.65821,0.14257 c 3.79108,2.55028 -2.22715,2.27223 0,0 z m -96.20313,0.008 c 19.99994,6.13089 -10.42644,25.81687 0,0 z m 103.71289,0.87304 c 16.12909,1.4393 -5.76687,6.84731 0,0 z m -51.42968,1.125 c 1.81958,0.10798 -1.32858,4.68124 0,0 z m 6.80078,0.0606 c 8.28386,6.00266 -8.92674,6.81147 0,0 z m -26.40821,0.69922 c 4.21618,22.37539 -18.83141,0.49514 0,0 z m -19.76757,0.0937 c 0.48903,7.16585 -8.69221,4.94852 0,0 z m 87.06835,0.84766 c 5.26412,0.28625 -1.2769,3.69103 0,0 z m 226.72266,1.95312 c 11.96455,3.57898 -2.94565,7.84602 0,0 z m -261.54687,0.0937 c 9.10108,12.42593 3.32861,16.33429 0,0 z m 34.77929,0.10156 c 13.39643,1.40262 3.23065,23.31333 0,0 z m -120.19531,0.13867 c 17.10664,3.30345 -10.69833,19.96459 0,0 z m 133.20703,0.0566 c 13.0766,10.40519 -4.36693,18.53588 0,0 z m 154.50391,0.17579 c 14.92968,2.69189 54.14238,62.51798 17.1269,48.10351 -1.79609,-18.45617 -9.80469,-29.58563 -17.1269,-48.10351 z m -247.51953,0.23047 c 13.03541,37.74567 -21.07121,10.92037 0,0 z m -44.875,0.0801 c -3.69165,20.78828 -13.54283,12.60904 0,0 z m 306.72461,0.0176 c 32.73134,-2.34105 53.66455,49.63269 10.94798,15.11548 0.44664,-5.26033 -16.88984,-9.57758 -10.94798,-15.11548 z m -232.39063,0.43555 c 7.03815,0.37635 -6.4568,5.85002 0,0 z m 13.06641,0.10351 c 21.97786,42.00582 -15.72035,26.50401 -0.79297,0.83985 -5.54737,9.37476 3.1038,4.19974 0.79297,-0.83985 z m -3.09961,0.57227 c 0.0987,9.91284 -5.39759,-1.94566 0,0 z m -35.52344,0.3457 c 13.47176,7.891 -5.93564,18.60874 0,0 z m 94.2207,1.28516 c 36.83654,-0.34034 -7.32064,33.2319 0,0 z m -65.42187,0.17534 c 3.7733,13.65626 -13.58596,1.6004 0,0 z m 20.28515,0.17188 c 8.04421,0.18523 -3.92902,8.76028 0,0 z m 204.92579,0.0625 c 10.72422,6.61335 8.28164,14.13115 0,0 z m -290.3711,0.34374 c 19.00532,15.90951 -28.7709,27.23564 0,0 z m 337.96094,0.2461 c 20.82747,11.69649 85.23064,28.76405 24.0161,32.36014 -31.029,16.0063 -18.93682,-18.58596 -24.0161,-32.36014 z m -317.83789,0.49023 c 5.88185,14.13539 -17.90806,4.78387 0,0 z m 131.67969,0.21875 c 4.18156,3.19554 -5.18988,2.0396 0,0 z m -95.08008,1.56641 c 6.4316,15.25864 -4.32386,8.4495 0,0 z m 33.87891,0.5 c 34.01629,14.07895 -14.81129,14.63908 0,0 z m -32.69336,0.30469 c 10.25165,8.73268 -2.84263,15.70745 0,0 z m -70.2461,0.78125 c -0.47858,9.37287 -3.11781,-0.0371 0,0 z m 164.99024,0.125 c 2.30114,4.68434 -6.3352,-1.29428 0,0 z m 3.25586,0.34765 c 56.95348,25.64418 -8.93678,41.84578 0,0 z m -32.73829,1.19532 c 15.62446,22.30059 14.49638,45.30488 -4.65236,17.20507 -6.93373,-6.85491 8.48955,-11.93213 4.65236,-17.20507 z m 9.76954,28.99023 c 0.0603,0.0983 0.25645,-0.12689 0,0 z m -65.89844,-28.18555 c 12.59832,15.71819 -8.01665,6.36804 0,0 z m -78.93945,0.0274 c 4.79097,4.60301 7.42526,-4.03202 -0.12891,1.07617 z m 22.21093,0.73633 c 24.53893,4.4038 17.73636,62.02432 -2.89703,48.50454 -18.79667,-18.64277 -12.17243,-34.79887 2.89703,-48.50454 z m 136.44141,0.4707 c 15.77123,26.27831 -19.63426,14.79428 0,0 z m -105.49219,0.002 c 2.95582,10.32964 -11.60827,7.79164 0,0 z m -31.67773,0.01 c 0.18953,4.03426 -5.69647,1.78414 0,0 z m 272.1289,0.3164 c 10.62046,7.18132 -3.25175,2.11234 0,0 z m -152.70703,2.14063 c 21.39898,27.91207 0.31945,17.20196 0,0 z m -145.83789,0.0195 c -16.67626,21.60386 -3.82042,-6.93608 0,0 z m 87.46289,0.16992 c 6.08827,2.83196 -6.81775,19.33051 0,0 z m -64.25,0.43945 c 0.45126,7.63352 -11.16122,3.22658 0,0 z m -16.8125,0.0781 c 6.89789,14.87835 -14.6773,8.73299 0,0 z m 35.875,0.44141 c 15.11467,8.50013 5.53552,15.19111 0,0 z m 38.7793,0.61328 c 9.56932,11.90107 -9.68782,19.43397 0,0 z m 241.32812,1.76953 c 47.48297,16.03828 4.9631,44.61938 0,0 z m -217.34961,0.19726 c 26.17972,3.70499 4.942,22.2043 0,0 z m -26.47851,0.56446 c 5.62841,12.24157 -9.64691,1.34149 0,0 z m -77.84766,1.4082 c 1.46087,11.05383 -16.49165,4.02712 0,0 z m 15.53321,0.66992 c -5.62949,12.20305 -5.92202,-2.86138 0,0 z m 100.40429,0.43946 c 10.52335,3.8968 -2.43152,15.46618 0,0 z m 233.53711,1.61523 c 21.52267,21.22649 -12.34571,3.547 0,0 z m -245.62109,1.07812 c 39.36065,18.83826 -36.05036,28.55219 -19.69529,23.42579 7.97876,-19.97183 4.29498,2.20636 19.69531,-23.42576 z m -16.89258,17.89063 c -1.66558,1.17032 -0.86414,6.5607 0,0 z m -2.42383,-17.50195 c 2.40137,2.42102 -3.94626,2.83545 0,0 z m 70.00391,0.0508 c 29.33624,4.36169 -14.80143,23.72564 0,0 z m -111.70117,0.13086 c 12.1639,10.24112 0.90426,32.5843 0,0 z m 277.96679,0.0215 c 1.27956,5.93514 -3.40188,0.20366 0,0 z m -190.42578,0.0234 c 27.64562,13.85243 -17.78923,15.80815 0,0 z m -125.18945,0.65625 c 6.66651,0.98241 -7.52629,3.27344 0,0 z m -9.96875,0.54492 c 6.90699,7.11792 -21.96754,46.80789 -3.86325,0.65234 l 3.86328,-0.65234 z m 80.2832,0.20117 c 2.87043,8.46975 -7.00619,2.09095 0,0 z m 332.90625,0.33594 c 18.46638,18.30723 -29.77112,40.24183 -32.653,17.94339 -2.29811,-15.87629 29.2776,4.3533 32.653,-17.94339 z m -400.9668,0.0195 c 8.74874,16.11462 23.12035,70.99208 -2.92722,26.68991 1.36377,-6.39323 -5.24004,-25.26571 2.92722,-26.68991 z m 339.125,0.85156 c 26.59552,14.74586 -3.81143,6.78633 0,0 z m -306.05468,0.18164 c 12.18094,13.01158 -5.01231,4.33261 0,0 z m 11.24609,0.49024 c 11.7401,4.07893 0.57799,10.55053 0,0 z m 120.10352,0.71094 c 4.59133,0.97739 -1.18965,2.88907 0,0 z m -85.11328,0.69922 c 11.41086,10.31634 -20.35394,17.3726 -2.7392,2.03193 z m 221.65039,0.0449 c 4.47061,3.05071 -3.01307,8.4185 0,0 z m 114.95703,0.0254 -2.00781,2.74023 z m -422.63672,0.0332 c 19.2391,23.87797 -1.01919,84.57651 -5.88477,61.23633 19.8566,-21.97605 -14.86074,-39.15752 3.7793,-60.78906 -2.3916,32.37571 -0.9798,27.97115 2.10547,-0.44727 z m 79.97656,1.33789 c -2.40521,6.4844 -2.42339,-1.11167 0,0 z m 40.45313,0.32422 c 4.60367,4.80186 -5.84776,2.16535 0,0 z m -45.40235,0.45898 c 2.61891,0.37408 -2.10044,3.11466 0,0 z m -93.49609,0.26172 c 1.33397,21.4572 -25.39989,15.90088 0,0 z m 185.60156,0.24219 c 10.16633,23.79127 -32.85065,34.16228 -9.48047,14.04102 -10.47563,-5.36794 -1.59874,-9.17505 9.48047,-14.04102 z m -183.14648,0.29688 c 1.21329,0.59472 -1.90134,6.86544 0,0 z m 190.92382,0.41015 c 33.04042,0.033 3.63008,22.531 0,0 z m 170.47266,0.4707 c 20.93856,-0.23959 -13.93133,11.90755 0,0 z m -285.15625,0.32618 c 11.65242,10.4911 -12.66709,12.40003 0,0 z m 58.67383,0.73828 c 8.049,2.14141 -2.42786,5.52836 0,0 z m 40.44531,0.30664 c 4.02319,0.65187 -4.12137,1.66704 0,0 z m 256.74024,1.38281 c -8.08522,13.28823 -15.24874,15.65461 0,0 z m -284.21289,0.0605 c 26.14135,2.91886 -16.19766,4.69192 0,0 z m 73.39648,0.17969 c 9.2751,16.83352 23.231,36.07642 53.92383,40.92773 -18.37007,1.31471 40.32907,18.03508 3.12998,36.17184 -7.95238,41.28368 -42.98434,-25.07397 -25.00905,9.32238 -38.48528,-5.51294 38.87016,6.10733 -4.99329,17.81826 -2.98739,42.50479 -45.77358,9.82613 -36.67457,-11.69772 -1.45382,-30.26651 7.18627,21.77143 2.27138,-12.98364 22.70729,3.28018 -16.65262,-1.18028 -4.08407,-26.51982 8.42619,-28.47669 -36.50731,-47.14796 11.43579,-53.03903 z m -6.41211,95.84575 c -4.99851,3.50574 0.3321,1.87763 0,0 z m 153.47266,-95.21294 c 15.14497,16.64866 -20.76878,5.17857 0,0 z m 63.4375,0.39453 c 7.70976,14.87838 30.30999,58.78218 -7.26758,24.91992 4.11616,-8.95906 -6.86165,-15.42285 7.26758,-24.91992 z m -372.51953,0.004 c 1.57499,6.07293 -3.31031,0.30201 0,0 z m 78.38867,0.0488 c -0.68165,4.43061 -6.25453,-1.95562 0,0 z m -137.44336,0.041 c 2.6914,4.88077 -11.83065,11.14455 0,0 z m 322.51758,0.71094 c 24.612,14.41769 -4.85338,35.75683 -13.41213,23.1269 -1.31156,11.6255 11.30047,-17.06329 13.41213,-23.1269 z m -7.89453,25.63086 c 1.14024,2.25607 1.50912,-0.82931 0,0 z M 398.71716,279.47734 c 9.26279,17.635 -7.66328,8.74654 0,0 z m 26.86328,0.0488 c 13.29774,6.685 -11.485,17.25751 0,0 z m 50.04297,0.15234 c 36.29766,-5.55126 5.32279,30.29555 12.75,6.81449 -7.46328,10.47042 -18.84483,6.46046 -12.75,-6.81449 z m 18.67578,3.86917 c -1.24258,0.24155 -0.0868,0.39318 0,0 z m -0.50977,0.23633 c -0.7003,-1.14598 -6.67285,3.29176 0,0 z m -3.03906,-3.5957 c -0.57471,7.39373 -10.99921,-1.74158 0,0 z m -20.57617,0.13281 0.97852,2.4375 z m 237.19141,0.0332 c 5.62795,7.32884 -1.37059,9.34375 0,0 z m -285.14649,0.13868 c 5.40796,12.2363 -17.07854,7.95095 0,0 z m 256.48438,0.3125 c 19.58153,-1.83957 14.53269,17.66466 0,0 z m 30.49218,0.0156 c 46.09611,4.2738 20.65178,46.62941 0,0 z m -294.95507,0.0781 c 0.65925,4.03687 -4.80226,1.29551 0,0 z m 36.42578,1.74414 c 26.63976,8.82256 -20.21189,35.3714 -13.35742,23.16992 -5.76407,-30.50884 -4.97871,6.48304 7.74606,-21.09437 z m 155.99023,0.0703 c 30.66147,14.86644 47.19521,28.26265 6.61204,20.7781 -2.97465,-6.41484 -9.39651,-13.14383 -6.61204,-20.7781 z m -140.00976,0.62109 c 1.29321,12.37148 -8.68374,4.02936 0,0 z m 227.39257,1.13282 c 32.41958,14.71408 13.80073,52.19246 1.34926,3.48811 z m -278.14843,0.39459 c 0.75078,2.99854 -2.34792,1.57786 0,0 z m -10.09961,0.45898 c 7.34803,0.67257 -2.06671,6.67885 0,0 z m 95.10742,0.0937 c 4.62142,20.91048 -20.71485,26.18791 0,0 z m 192.48633,0.36524 c 4.88536,14.10888 -17.15775,5.09175 0,0 z m -261.32617,1.0625 c 0.17802,3.56297 -6.5805,4.8338 0,0 z m -38.14063,0.77343 c 5.72265,11.24305 0.68602,7.24578 0,0 z m 295.56836,0.30078 c -6.89824,9.10979 -4.038,-3.316 0,0 z m -275.74609,0.39649 c 7.47446,2.12381 -6.88769,8.2175 0,0 z m 112.6914,0.20898 c 23.6264,21.75951 6.38609,70.4181 5.42188,14.58398 1.06349,-7.54649 -20.23691,-7.88541 -5.42188,-14.58398 z m -64.12109,0.0391 c 16.74063,31.18217 -41.55586,37.33023 -13.91602,18.26757 5.38005,-5.28182 12.08085,-10.43595 13.91602,-18.26757 z m -65.64453,0.008 c 7.1795,0.15149 -1.5244,11.40471 0,0 z m 358.8457,0.0547 c 23.59867,32.60446 -44.03806,15.87592 0,0 z m -429.51758,0.14257 c 31.8887,11.20343 23.14807,53.84922 -18.53525,47.88078 8.65022,-7.57248 10.6644,-38.77368 18.53525,-47.88078 z m 96.35742,0.32813 c 0.7528,2.18634 -2.45794,-0.068 0,0 z m -12.80078,0.29687 c -1.33524,2.46952 -1.15475,-0.82902 0,0 z m 5.99414,0.59961 c 7.07401,-0.24512 -0.94624,4.84288 0,0 z m 268.01172,0.24024 c 0.87132,25.18123 -21.0521,14.41218 0,0 z m -370.19922,1.66601 c -1.36506,9.8194 -15.05136,3.62625 0,0 z m 154.02149,0.043 c 11.767,11.26121 4.87373,19.10573 0,0 z m 324.99023,0.041 c 10.27288,-0.24186 2.22403,3.06627 0,0 z m -371.35742,0.10547 c 11.75949,8.10619 -14.97764,8.22118 0,0 z m -17.38281,0.21289 c 6.24985,-1.64108 3.50585,13.21384 0,0 z m 280.8457,0.0566 c 12.49153,17.68256 49.76548,31.07708 23.1426,53.89061 0.75064,-35.83333 -1.88618,-31.82028 -1.82813,-0.3301 -15.9936,-14.82696 -31.02525,-35.26813 -21.31447,-53.56051 z m 18.75781,22.97851 c -0.0147,-0.24982 -0.0811,-0.0192 0,0 z m 5.23438,-22.6914 c 5.54411,1.39543 1.40907,7.3396 0,0 z m -241.59766,0.25586 c 9.1183,11.13552 -4.45652,4.68995 0,0 z m -73.30273,0.64257 c 4.76016,8.62191 -5.65531,-2.32184 0,0 z m 31.29101,0 c 11.04657,-0.66804 -7.8244,13.47285 0,0 z m -11.17382,0.44922 c 14.63504,11.42777 -11.24775,19.81332 2.06835,1.80469 z m 59.67578,0.6875 c 25.4938,8.33789 9.3556,52.64398 -4.31263,37.34575 1.44166,-21.10359 9.46335,-17.23891 4.31263,-37.34575 z m 3.69726,7.03321 c 0.72168,1.53864 1.14247,-6.37294 0,0 z m 5.17188,16.91211 c -0.11292,-0.18064 -0.31353,0.20476 0,0 z m -0.16211,0.0137 c -9.96724,-2.11846 -5.1002,1.33025 0,0 z m -5.74219,-1.17383 c -0.006,-0.0297 -0.0733,0.0158 0,0 z m -0.0312,-0.004 c -2.61934,-3.34498 -3.75732,4.0916 0,0 z m -74.04297,-22.40429 c 16.16278,14.21344 -9.29711,6.42517 0,0 z m 270.41797,0.14062 c 17.54224,25.38928 -65.29811,57.16327 -26.2973,16.20963 7.72696,-13.42602 19.29166,28.89468 5.40273,-5.23502 7.93225,-1.58117 13.88035,-7.43552 20.89457,-10.97461 z m -360.16602,2.00391 c 17.83013,22.19054 -38.47946,60.45659 -8.65624,17.27148 3.64721,-6.09531 -4.19916,-19.22453 8.65624,-17.27148 z m 399.97657,0.0371 c 2.89597,1.25041 -2.46347,2.32761 0,0 z m 2.29883,0.77734 c 36.48052,3.70784 -10.12771,31.56702 1.32621,5.83401 25.43358,7.04183 -4.34503,1.77034 -1.32621,-5.83401 z m -3.59571,1.02148 c 2.66841,-0.20906 -0.399,3.05598 0,0 z m -313.28711,0.0684 c 10.7211,7.9668 -0.25904,3.56001 0,0 z m 299.81641,0.0117 c 19.36468,11.06106 -5.19994,19.09395 0,0 z m -306.44922,0.44727 c -3.75338,6.36422 -9.25607,1.27805 0,0 z m 36.04492,0.008 c 4.5114,6.69957 -9.15934,0.22683 0,0 z m -32.11914,0.53125 c -5.55766,20.40633 -29.70013,5.6875 0,0 z m -91.51562,0.51953 c 13.17169,44.03205 -71.66155,43.65501 -33.12891,10.94727 12.76646,3.88335 23.19,-4.51459 33.12891,-10.94727 z m 166.64843,1.47071 c 6.58416,0.35536 -3.23348,6.73737 0,0 z m -47.51562,0.34179 c 7.52757,0.16779 -1.82294,12.10661 0,0 z m 5.94922,0.082 c 2.31326,3.49754 -3.41886,0.55388 0,0 z m 74.24219,0.38868 c -5.49402,23.40444 14.19365,23.89974 15.45361,59.12394 -18.72056,30.74434 26.31301,42.42568 14.27513,76.40588 -11.03941,33.39247 -2.30026,-1.82877 -5.9807,34.12256 25.64605,22.02122 -31.9147,53.84855 -2.41015,11.9199 -0.96308,-36.46941 -31.37387,-51.6182 -21.4961,-95.42971 -7.52909,-27.95549 -12.87167,-53.1208 -1.13083,-86.01562 l 1.28907,-0.12695 z m 125.61914,0.43359 c 38.72036,7.45966 -18.44083,52.18764 -9.93696,3.74908 l 7.42914,-2.44049 z m -207.53125,0.22656 c 13.94111,18.62652 -20.0622,10.91527 0,0 z m 311.51562,0.16406 c 36.04411,3.99947 -10.47296,15.8345 0,0 z m -234.02539,0.4375 c 3.31594,26.41927 -18.07902,11.50235 0,0 z m -24.38086,0.2168 c -3.1474,29.42513 -30.46731,26.63449 0,0 z m -76.8125,0.0117 c 7.58197,9.03916 -9.77028,-1.36729 0,0 z m 30.26758,0.57031 c -1.48298,6.11347 -4.48116,2.16466 0,0 z m -25.36914,0.28321 c 5.94245,-0.78439 -1.93589,7.85039 0,0 z m 28.6543,0.44336 c 14.05949,12.14247 -11.84989,15.34199 0,0 z m 313.17187,0.80078 c 10.30804,-0.94531 7.94108,15.22507 0,0 z m -350.54687,0.42968 c 17.83815,12.77066 -18.05468,14.43186 0,0 z m 368.75585,0.9336 c 48.38814,15.05939 -26.05733,8.26448 0,0 z m -83.58593,0.66797 c 14.33037,16.76216 20.19636,54.34449 -16.34377,37.83585 -47.46888,-6.59851 40.52132,-53.21776 1.05664,-14.47844 -6.8946,38.43143 4.13688,-18.7294 15.28713,-23.35741 z m -61.46875,0.0762 c 6.25576,16.83242 -13.48929,11.68305 0,0 z m 135.03125,0.42578 c 8.73474,-0.11001 -2.44069,8.92335 0,0 z m -22.47266,0.38867 c 59.82067,1.50746 -32.91983,28.33361 0,0 z m -329.80273,0.95899 c 2.87667,6.73187 -4.59154,6.90616 0,0 z m -28.32032,0.0449 c -6.27177,11.07546 -18.90855,1.64945 0,0 z m 342.46094,0.008 c 4.35887,3.3275 -1.0925,1.77981 0,0 z m -302.70508,0.0391 c 15.52812,12.57419 -8.85032,24.09441 0,0 z m -35.67578,0.043 c 29.99616,8.89767 -29.20311,17.23483 0,0 z m 48.9375,2.83399 c 1.97142,9.50867 -10.61772,15.94685 0,0 z m 358.30078,0.52539 c 3.24572,0.92887 -3.24385,5.16884 0,0 z m -365.83789,0.23437 c 6.95287,0.21705 -0.80827,11.13522 0,0 z m 39.35352,0.36328 c 16.9202,47.87733 -31.87153,24.28692 0,0 z m 299.16406,0.21289 c 26.89912,-2.14333 34.91768,17.68043 0,0 z m -329.0625,0.24414 c 3.8556,4.18311 -4.00388,2.69158 0,0 z m 326.19727,0.4668 c 13.34529,17.4957 29.88744,58.72631 -4.08807,21.85742 -10.1311,-15.90447 -15.31656,-14.48214 4.08807,-21.85742 z m 1.76758,0.16797 c 50.33326,3.08799 4.23742,41.15138 0,0 z m -320.16993,0.0547 c 8.16211,31.38513 -14.56364,3.28537 0,0 z m -47.23828,0.18554 c 33.03337,24.50794 -30.51144,24.80123 0,0 z m 51.98828,0.13282 c 7.20149,9.60131 -10.68095,11.9553 0,0 z m -78.45703,0.66211 c 7.28781,5.59212 -6.59145,10.85017 0,0 z m 80.04102,0.38476 c 8.89216,12.33023 -8.64267,17.42493 0,0 z m -14.45508,0.88281 c 4.42976,2.10622 -7.96952,6.69607 0,0 z m -27.42969,0.76563 c 11.4131,29.92916 -9.03158,18.49942 0,0 z m 94.40039,0.14844 c 8.64421,9.60724 -7.81414,-0.11548 0,0 z m -91.45898,0.4414 c 2.30264,15.96763 -2.25096,3.37968 0,0 z m -36.2461,0.37305 c 19.53823,1.36219 -4.98071,8.18021 0,0 z m 414.64063,0.2793 c 42.9164,14.52928 -6.56641,62.0141 2.57812,19.56054 0.52059,-2.2193 -17.62695,33.57213 -8.41998,-10.41797 11.26012,-14.30903 10.94211,16.05561 5.84186,-9.14257 z m 2.30469,13.10351 c -0.91471,1.76541 0.39265,0.39143 0,0 z M 470.03552,319.91679 c 4.55606,11.12501 -10.75053,8.26424 0,0 z m -60.89453,0.69141 c 7.32764,6.66093 -3.31048,8.88303 0,0 z m 18.38476,0.0937 c 15.81363,11.31348 -6.37281,14.87357 0,0 z m -8.55859,0.64063 c 16.21536,25.48969 -21.25495,6.16773 0,0 z m 196.91015,0.10742 c 10.87927,12.01847 -2.92831,4.69063 0,0 z m 105.2129,1.20508 c 21.38323,34.55838 -33.88383,41.37616 0,0 z m -233.98438,0.16992 c 22.23054,19.11076 -28.94244,12.01632 0,0 z m 238.70703,1.45898 c 27.27907,-3.84714 -2.95396,39.12291 0,0 z m -361.58594,0.1836 c 41.52934,15.7968 -2.2728,17.60587 -2.78505,8.76206 -13.47992,3.29617 -1.18257,-5.98663 2.78505,-8.76206 z m 373.09961,1.52343 c 21.93298,19.66244 52.78725,55.36308 6.70524,32.12209 -18.51652,-15.77889 -9.3738,-14.20692 -6.70524,-32.12209 z m -294.12695,0.78907 c 0.0437,5.10024 -7.39851,0.70857 0,0 z m 179.35352,3.34765 c 11.22875,-4.23844 17.73441,23.87165 0,0 z m -154.47266,0.0527 c 32.20705,17.90282 -23.15672,34.02828 0,0 z m -40.78906,0.32422 c 10.458,-0.95011 -4.65831,11.74566 0,0 z m 8.28711,0.33007 c 19.1194,10.00012 19.89372,58.78139 0,0 z m 252.51367,0.40039 c 25.89779,11.23955 23.47482,44.89434 0,0 z m -319.61133,1.00782 c 41.91285,7.24457 -22.49391,24.74623 9.31253,43.48823 -21.77805,38.32069 -20.52889,-1.5118 -30.96303,-15.21637 -2.27116,-27.42325 22.69174,-21.54618 21.6505,-28.27186 z m 39.91992,0.13086 c 12.4473,12.08581 -4.55254,8.96728 0,0 z m -135.39844,0.49023 c 28.79703,15.01827 -14.871,7.60046 -19.91163,25.38495 -19.62573,20.11899 -39.00798,19.19894 -9.30774,-7.939 9.91532,-5.51389 19.69017,-11.28591 29.21937,-17.44595 z m 153.1836,0.30664 c -10.25494,19.61023 -21.55377,21.86485 0,0 z m 208.41992,0.9375 c 9.16342,-1.05882 -4.35128,8.57174 0,0 z m -310.71484,0.68164 c 9.69074,2.45883 -4.63915,32.4001 15.56292,38.62224 -13.21079,33.82105 -31.38468,72.78202 -62.68402,29.79182 4.99554,-41.06176 3.51723,-68.0494 47.1211,-68.41406 z m 539.83008,0.25391 c -0.0601,0.29488 1.5403,0.7404 0,0 z m 0.55664,0.38867 c 13.22932,0.63975 44.7978,10.46734 29.07614,1.55859 -9.68685,2.36558 -19.67267,1.20417 -29.07614,-1.55859 z m -370.45118,-0.1875 c -3.56961,18.36973 -20.72793,7.94153 0,0 z m -64.38867,0.45117 c 0.045,11.03874 -5.54913,-0.3382 0,0 z m -140.21094,0.1543 c 27.20265,-1.72714 -20.89091,17.51686 0,0 z m 48.39649,0.11133 c 46.73051,0.0206 -38.90854,60.92192 0,0 z m 94.87109,0.13671 c 20.41083,18.02852 -6.19958,16.54755 0,0 z m -40.875,0.39844 c 6.37089,9.15961 -16.36527,5.68839 0,0 z m 246.35938,0.44336 c 13.20647,23.62333 57.87556,-1.2511 56.63861,23.39847 9.23686,18.56332 -5.25,31.27275 -37.3887,29.3945 3.98026,-15.98738 -35.59001,-38.22606 -19.24991,-52.79297 z m -242.29102,0.33789 c 20.22694,-0.61905 -32.18135,71.99567 -10.58008,13.73238 -1.55549,-8.86774 10.9872,-5.54506 10.58008,-13.73238 z m 66.91797,0.0332 c 4.07475,9.19004 -4.2648,11.88231 0,0 z m -2.10547,0.12109 c 4.56184,13.78309 -10.38374,4.07721 0,0 z m -34.62695,0.002 c 6.78906,29.93652 -23.58854,18.78465 0,0 z m 481.07617,0.23828 c 0.90462,2.68555 1.1607,-0.3674 0,0 z m 0.77344,0.88086 0.77539,0.88282 z m -275.25391,0.90235 c 0.77555,2.52409 -3.81202,-0.0187 0,0 z m -3.36328,0.89453 c -7.21835,30.21897 -32.64726,42.85368 -7.74217,5.10547 l 1.48243,-2.2714 6.25976,-2.83407 z m -215.66992,0.5918 c 3.16452,3.57986 -6.62227,3.1752 0,0 z m 356.34961,0.84377 c 7.89951,5.97637 -4.12919,11.68393 0,0 z m -41.25,0.1836 c 10.16097,10.08304 62.56133,46.89674 23.2539,36.6035 -12.33669,-15.20682 -63.18473,-12.88664 -23.2539,-36.6035 z m -98.28906,0.1289 c 20.44517,29.11311 39.47293,60.57128 -9.88493,40.75942 -14.45702,-9.90585 9.1501,-27.79724 9.88493,-40.75942 z m -148.70313,1.2637 c 6.66411,21.45628 20.55603,43.2167 8.9805,67.3979 -9.75775,-14.91577 -6.30873,-32.49851 -12.74395,-48.50989 -3.44736,-33.30808 13.64116,28.05727 3.76339,-18.88861 z m -31.26367,0.4434 c 15.71258,11.41928 -10.33171,5.28893 0,0 z m -20.80469,0.7558 c 17.45582,19.7631 -18.33113,30.07698 0,0 z m -23.87305,0.1426 c -11.50984,23.56488 -27.77039,22.52522 0,0 z m -20.12695,1.5664 c 2.55653,49.08705 -36.27077,10.4603 0,0 z m -20.38476,0.2168 c -4.93369,28.72382 6.16994,3.74101 0,0 z m 0.41796,12.2754 c -0.31825,-0.002 -0.67157,3.20981 0,0 z m -0.37109,1.2031 c -7.78809,16.05629 -4.30274,25.29196 0,0 z m 93.72461,-13.3418 c 4.52347,5.76835 -5.63461,1.81117 0,0 z m -52.95312,1.4414 c -15.75236,41.73027 -27.19169,25.92282 0,0 z m 83.1914,1.3457 c 24.82016,15.80349 -4.11506,37.15298 0,0 z m -32.01758,0.4043 c 3.93821,5.44808 -5.96958,13.5387 0,0 z m 244.71289,0.1446 c 27.62064,12.88594 -27.73965,8.4843 0,0 z m -260.51757,0.9003 c 34.92881,16.91324 -16.03298,36.92734 8.31445,60.2012 -8.93095,37.06619 -30.64944,-41.52467 -12.17061,-55.79218 l 3.85625,-4.40902 z m 174.02343,0.252 c -2.00377,19.16446 -25.44492,23.61185 -2.33927,3.18651 z m -203.4414,1.4453 c 6.38553,7.70419 -9.44645,8.93392 0,0 z m 57.90039,1.168 c -3.60618,10.49026 -14.90367,-1.86458 0,0 z m -55.28711,1.3085 c 29.05629,34.6892 -15.96582,35.61655 0,0 z m 295.5332,0.168 c 0.088,4.50475 -3.58591,-0.81822 0,0 z m 63.64649,0.3164 c 7.48291,-3.058 4.43693,12.90979 0,0 z m -206.59571,0.033 c 8.64785,6.12117 2.66084,-3.49395 0,0 z m 4.27344,1.039 c 2.36822,8.71593 1.97744,0.98821 0,0 z m 201.22852,-0.043 c 21.04301,21.32845 -13.98241,32.23414 0,0 z m -61.68555,0.4375 c 19.2661,15.48709 -30.80255,28.90068 0,0 z m -250.55469,0.8067 c 10.16176,-1.58872 -2.60167,8.16159 0,0 z m 12.02539,0.1581 c 2.07293,1.20632 -2.30965,1.92512 0,0 z m 233.15039,0.754 c 0.74571,20.19346 -20.28092,7.15832 0,0 z m -236.38086,1.7598 c -0.49859,6.03719 -5.00251,2.099 0,0 z m 1.6543,0.123 c 16.68238,23.95087 -7.86781,16.20336 0,0 z m 3.08398,0.5488 c 14.49399,14.53046 1.92953,22.2349 0,0 z m -11.56835,0.1524 c 4.94184,8.10922 -7.13753,8.5274 0,0 z m -57.9375,0.8847 c 3.38913,31.68481 -38.75609,44.30724 -8.49415,10.5137 l 0.84766,-6.2617 z m 290.4121,1.1835 c 7.14561,4.48068 -3.40741,5.88461 0,0 z m 84.1504,0.1056 c 22.55102,5.95634 40.23759,47.33208 2.83593,24.6191 -17.79218,-10.05973 7.07494,-13.69082 -2.83593,-24.6191 z m -187.09376,1.539 c 7.23087,-0.5703 4.97631,7.91396 0,0 z m -182.92773,0.3437 c 27.14434,23.93964 -28.19256,54.1342 11.3205,27.3156 -0.009,21.15771 -22.01139,67.94128 -19.80292,16.8466 -28.85485,4.52718 12.11374,-31.58955 8.48242,-44.1622 z m 15.93555,0.4435 c 6.44369,7.97782 -8.65929,15.58296 0,0 z m 295.10547,0.4648 c 5.39066,0.099 0.1043,2.21544 0,0 z m 6.21093,1.2735 c 5.96807,-1.09776 0.94507,1.7939 0,0 z m -502.52929,1.6132 c 12.97373,9.6071 -19.78775,17.99149 0,0 z m 204.40039,0.1836 c 4.00099,21.59621 -10.03716,34.78128 0,0 z m 170.72461,0.4922 c 11.20964,18.67429 -38.38652,21.0332 -0.50391,2.7578 z m -255.19336,0.4278 c 33.31904,10.146 -0.92887,57.17905 -3.62891,48.3183 -56.77454,37.58145 -0.23402,-28.60184 3.62891,-48.3183 z m 261.64062,0.8105 c 17.03774,8.87089 -33.04056,24.81294 0.46289,2.1797 z m -144.15234,0.1953 c 14.36053,6.70908 -11.96297,14.73525 0,0 z m 8.30078,0.5996 c 14.03376,11.9032 33.78364,68.67652 -1.53906,58.9395 13.65884,-19.63521 -1.48632,-43.36814 1.53906,-58.9395 z m 376.43945,0.3145 c 1.43377,1.17423 7.82847,1.28379 0,0 z m -77.95312,1.1465 c 13.86797,3.228 -9.53637,17.28724 0,0 z m -312.60352,1.7226 c 1.53803,9.33823 -5.74968,4.32144 0,0 z m 40.22461,1.3067 c 15.91269,10.23323 -4.67916,47.35714 -0.38281,7.2477 l 0.35742,-2.506 0.0254,-4.742 z m -108.51367,0.4257 c -3.46118,22.28961 -14.06281,0.59979 0,0 z m -141.96094,0.018 c 7.88292,10.20564 10.74433,14.66625 0,-4e-4 z m 132.84375,0.7344 c 9.12115,6.83673 -29.87674,16.78084 0,0 z m 322.21875,1.6426 c 1.27625,32.79372 -6.98904,45.27195 -13.05468,4.9375 4.10657,-2.30758 8.82804,-2.95005 13.05468,-4.9375 z m -222.6582,0.031 c 9.44426,2.08163 -2.41696,12.67257 0,0 z m -18.96289,0.1211 c 0.0493,4.71572 0.16653,16.18273 0,0 z m 313.74609,0.2461 c 36.38808,25.21337 -18.73101,16.23225 0,0 z m -316.55468,1.8145 c -0.3683,5.03321 -4.66418,-1.24981 0,0 z m -3.95508,0.7421 c -5.30202,24.10032 -13.53637,5.27909 0,0 z m -72.28321,0.6211 c 27.72307,40.78227 -35.56008,7.93627 0,0 z m 387.64649,0.3301 c 7.90112,16.23275 -5.05882,3.56227 0,0 z m -311.5332,0.1738 c 21.48761,42.76205 -20.67192,19.46598 0,0 z m 8.28515,0.035 c 4.62741,11.70274 -4.80958,-0.27485 0,0 z m -41.36914,2.4473 c 0.434,2.98856 -2.97901,-0.2914 0,0 z m 6.50586,0.4082 c 1.36047,3.09871 -2.87767,0.14574 0,0 z m 256.0332,1.5527 c 28.65683,34.49326 -26.75008,12.31425 0,0 z m -261.97461,0.8516 c 17.82688,5.98707 -8.46735,17.17944 0,0 z m 162.53711,0.4687 c 23.33516,0.39601 -15.46272,31.13267 0,0 z m 72.01563,1.1895 c 18.71227,-0.0215 27.76563,16.94127 0,0 z m -197.01563,1.4902 c 3.43319,0.48217 -0.85149,5.01509 0,0 z m -277.13086,0.4277 c 4.93488,29.89938 -50.67195,38.10364 -12.95705,11.7891 -7.06211,-14.99191 8.67385,-5.08571 12.95705,-11.7891 z m 617.04102,0.2247 c 7.66187,8.10519 -31.85195,0.8134 0,0 z m -218.81055,0.1835 c 5.95062,14.18315 -10.91037,4.83211 0,0 z m -115.92383,0.375 c 11.79457,14.91345 -0.3987,38.40794 0,0 z m -99.34961,0.08 c 57.47482,30.01266 -25.31898,6.60942 0,0 z m 63.89454,3.5547 c 2.52809,30.32467 -11.44343,9.14763 0,0 z m 14.97265,0.5508 c 18.86321,14.10732 1.54664,37.44353 1.37891,6.6699 z m -92.58008,0.4844 c 12.16238,-1.73827 -5.61065,6.28531 0,0 z m 224.8711,0.625 c 2.5176,26.5932 1.15429,31.48534 -4.42705,29.93775 -19.00738,15.83664 -3.00603,-32.47073 4.42705,-29.93775 z m -146.09766,0.018 c 4.58802,11.81286 1.7831,32.71686 0,0 z m -73.42969,0.8418 c 63.42865,17.72736 -57.93451,25.83099 0,0 z m 28.81836,0.8418 c 2.16467,3.79529 -2.57805,1.90653 0,0 z m 39.29883,1.5606 c -2.2941,17.98841 17.36916,64.92093 -6.09177,57.55471 -6.365,-20.80621 -23.76424,-29.23453 6.09177,-57.55471 z m 155.03321,0.5254 c 12.53284,21.84191 -1.78407,27.32746 0,0 z m -87.95899,0.3711 c 19.50478,7.76388 -12.84893,26.40202 0,0 z m -30.19336,2.7578 c -0.1512,16.02327 -2.39724,38.73583 -5.91797,5.6816 z m -73.80469,1.2793 c 13.91986,11.13228 -0.70667,9.27337 0,0 z m -2.73046,1.6367 c 7.59168,4.22799 -4.67257,2.42017 0,0 z m -5.55469,2.6113 c 2.28613,6.82016 -8.40923,1.2143 0,0 z m -20.50196,0.2696 c 43.77678,11.19883 -25.5763,35.29495 -18.44335,51.29871 2.13348,-19.07241 40.3993,-36.06346 38.98636,-41.04301 -4.98387,14.6021 -41.34511,79.46546 -50.16406,46.83211 12.20912,-14.01258 -3.03081,-50.62233 29.62105,-57.08781 z m 331.50391,0.012 c 22.00556,19.365 -9.51187,32.54567 0,0 z m -306.93945,0.4453 c 20.19165,18.00768 -7.96603,13.34864 0,0 z m 116.37695,1.1387 c 2.03655,0.98367 -4.02317,6.12191 0,0 z m -36.53711,0.873 c 15.65093,13.95489 -19.07334,23.18465 0,0 z m -68.82031,0.027 c 9.91482,-1.07889 9.64352,12.16632 0,0 z m 104.16016,0.3613 c 3.7294,19.3269 -16.96424,-0.87356 0,0 z m -69.19141,0.5195 c 20.5697,12.33628 -14.19051,45.20685 0,0 z m -38.85938,0.293 c 16.3879,5.37394 -11.01197,18.22052 -3e-5,0 z m 64.02344,1.5547 c 9.51392,35.94741 -15.4047,14.61692 0,0 z m 33.7207,0.5175 c 0.31329,26.59386 -6.17377,2.58695 0,0 z m -90.96484,2.2207 c 10.28444,6.04448 -11.60802,9.28887 0,0 z m 94.12891,0.098 c 7.34565,4.58438 6.41557,19.09734 0,0 z m 6.7832,0.4004 c 8.15823,11.44264 -2.06525,20.17285 0,0 z m -159.41406,0.8945 c 8.43973,39.51683 -46.88835,16.48627 -4.25393,2.3789 4.69134,1.93916 0.64782,-3.92083 4.25393,-2.3789 z m 151.53711,0.1758 c 3.21726,16.17686 14.14531,45.44592 -3.97855,15.08201 -1.90149,-6.59778 3.11431,-9.27994 3.97855,-15.08201 z m -52.88282,3.6953 c 9.20526,6.75182 -7.43736,11.47403 0,0 z m 141.90235,0.08 c -15.74743,22.73353 -19.54054,6.51949 0,0 z m -193.6875,0.4844 c 14.55798,25.38665 -32.887,33.26973 -24.91658,47.32618 -20.93867,-2.94351 22.24778,-29.899 24.91658,-47.32618 z m 61.44922,0 c 19.5858,31.80478 -16.14976,3.61198 0,0 z m -48.90235,0.1328 c 7.21605,17.44029 -7.3043,-0.31194 0,0 z m -5.9082,0.7402 c 2.66765,-1.9881 4.84268,6.217 0,0 z m 105.0293,1.8477 c 6.11377,17.00447 -3.68542,14.65561 0,0 z m -105.42578,0.4746 c 20.54493,22.94527 -26.33487,21.19302 1.6428,11.99528 6.53039,3.75785 -8.39696,-5.62452 -1.6428,-11.99528 z m 48.61132,0.8789 c 17.38968,22.6681 -15.8368,44.81012 -3.76759,3.10551 l 3.76757,-3.10551 z m -130.52539,0.3027 c 6.55006,2.65687 -5.09075,3.17005 0,0 z m 174.68164,1.6094 c 10.32835,16.90979 -13.52062,2.71103 0,0 z m -18.96093,1.03711 c 31.75464,4.15468 -15.4959,86.35081 -11.31055,32.2363 6.68054,-8.22217 0.0872,-26.43751 11.31055,-32.2363 z m 29.16797,1.086 c 9.37149,12.41328 -8.76701,1.96338 0,0 z m -59.85352,0.078 c 9.10562,3.4585 -8.11746,10.85626 0,0 z m 127.76367,0.6777 c 11.70551,4.35388 -10.83349,15.91647 0,0 z m -164.60742,0.293 c 6.99027,4.85361 -5.67013,12.05131 0,0 z m 80.91016,1.1015 c 33.27114,19.10734 -16.23303,50.23577 -6.16407,82.9258 -17.93754,22.17251 -7.37513,-18.70025 -7.94336,-34.3987 6.42447,-13.63027 35.92305,-26.19912 14.10743,-48.5271 z m -7.90821,43.5079 c -0.13661,0.43634 0.36373,0.0639 0,0 z m 0.0664,0.1992 c -0.0897,17.51022 4.50064,16.44109 0,0 z m -7.4043,40.0039 c 0.0487,0.74304 0.18283,0.11583 0,0 z m 12.94336,-83.3672 c 3.09305,-1.55664 -0.30248,4.5752 0,0 z m 24.58985,0.6894 c 28.04052,18.05809 -6.62258,22.70831 0,0 z m -42.80274,0.3555 c -1.7546,18.09041 -10.09569,4.33132 0,0 z m 77.41211,2.2871 c -0.0453,0.0167 -0.0689,0.18984 0,0 z m -56.54883,0.9082 c 23.45412,28.38807 -36.49273,45.95775 -0.93159,10.0453 z m -28.46289,1.4199 c 0.53881,19.18029 -10.74705,10.78504 0,0 z m -48.44726,0.4024 c 0.79702,5.74295 -5.88476,-1.49376 0,0 z m 45.20117,0.6426 -0.99219,2.0664 z m 52.89062,0.1132 c 1.8271,3.83927 -2.12436,1.82248 0,0 z m -95.68359,0.5137 c 21.06516,5.60092 7.66887,20.10144 5.75385,10.3028 l -4.12121,-3.85304 -1.6327,-6.44976 z m 7.97656,11.4297 c -0.0165,-0.38694 -0.90861,-0.005 0,0 z m -14.76758,-11.0781 c 14.1915,8.94989 -6.90464,20.76719 0,0 z m 136.0918,1.9297 c 0.33589,5.31636 -8.39804,3.0314 0,0 z m -89.48828,1.6894 c 6.91975,4.85851 -8.22143,35.66179 0,0 z m 8.18555,0.3926 c 5.07074,13.88358 -8.73115,15.28975 0,0 z m 47.54296,1.127 c 19.82972,25.07212 0.99731,51.79602 -5.69726,8.3224 -1.06675,-4.60917 6.55412,-3.74921 5.69726,-8.3224 z m -105.64648,0.6621 c 23.47457,33.09788 -19.85415,55.57425 -8.29883,10.6346 -3.67173,-5.7392 4.65481,-9.09585 8.29883,-10.6346 z m -12.45703,0.5663 c 4.10188,9.70638 -14.18485,11.85332 0,0 z m -51.94531,0.4883 c -0.43076,1.17197 0.85815,5.16175 0,0 z m 73.76757,1.2988 c 36.7308,26.0178 -12.99061,51.84352 0,0 z m -73.63476,2.1816 c -1.10861,0.64695 0.93613,4.3042 0,0 z m -0.0508,1.8809 c -0.24469,0.2943 0.65818,0.85751 0,0 z m 178.89648,-1.5098 c 31.40494,13.23802 -12.32051,81.4017 -0.34174,26.4043 3.67682,-9.1734 -0.9843,-18.10018 0.34174,-26.4043 z m -75.66015,1.4668 c 3.15923,12.05351 -0.58787,59.53398 6.13283,39.7185 13.15776,19.10417 -19.03471,46.04042 -14.89907,16.52795 16.87093,-15.88664 -11.29579,-40.66766 8.59631,-56.24115 l 0.16993,-0.01 z m -48.84766,1.4102 c -1.25511,43.65906 -48.23875,8.82118 0,0 z m 165.19531,0.2285 c -0.33426,1.13966 0.30842,0.22868 0,0 z m -0.0176,0.5195 c -7.32608,12.17859 -6.4247,13.27639 0,0 z m -217.84765,1.6016 c 3.24105,11.36477 -7.03675,3.36897 0,0 z m 121.99609,0.031 c -2.38619,4.64273 -2.53691,-0.25499 0,0 z m -82.01953,0.6739 c -5.60899,8.8553 -6.96835,-5.21602 0,0 z m 65.36523,0.2871 c 9.08865,4.33845 -10.07402,14.68266 0,0 z m 12.90235,2.0761 c 14.85406,28.99746 -10.33969,11.53277 0,0 z m -30.6543,0.125 c 6.50289,8.7887 -4.17148,9.68845 0,0 z m -19.23047,0.1016 c 6.79922,19.10965 -7.9403,11.30963 0,0 z m 21.92383,4.1836 c 14.24487,25.69676 -10.81722,21.4492 0,0 z m 21.07813,0.01 c 10.00589,16.22273 -2.87721,9.38758 0,0 z m 10.17578,1.6699 c 9.88649,13.13653 -0.15828,8.93227 0,0 z m -6.73243,0.2754 c 6.34438,-0.19232 -0.92457,12.94972 0,0 z m -6.67382,1.4785 c 6.73445,8.96717 -1.53034,10.94529 0,0 z m -111.38282,1.1055 c 7.8166,4.8855 -4.00927,5.38571 0,0 z m 89.56055,2.4433 c 3.6721,1.68391 -3.32766,9.72599 0,0 z m -14.63867,1.1738 c 17.64344,16.16098 -9.52604,17.49137 0,0 z m -47.95117,0.1309 c 20.53669,21.72603 -18.19816,18.2805 0,0 z m 83.68359,1.5215 c 3.48056,11.73455 -12.05214,16.18886 0,0 z m 8.88477,0.4766 c 13.23679,26.64661 -8.38472,27.07613 -0.13089,1.0939 l 0.13086,-1.0917 z m -69.39649,0.1308 c 33.44831,10.91197 10.74025,20.79964 14.18555,34.125 -8.71109,17.85157 15.55073,-47.55729 16.2168,-2.6894 29.17875,6.35893 -43.52452,48.20707 -31.27785,4.18598 6.53517,-12.90796 -23.63604,-35.62098 0.8755,-35.62158 z m 15.8086,41.4434 c -0.2459,0.79364 0.19012,0.16555 0,0 z m 49.62895,-38.668 c -2.7506,8.44175 -7.14693,2.28661 0,0 z m -82.65039,0.2617 c 10.79472,17.14809 -15.3207,30.12497 0,0 z m 55.86719,0.029 c 30.529,20.26737 -17.11997,19.72533 0,0 z m 36.98828,1.3125 c 2.0873,0.82529 -3.17698,2.59567 0,0 z m -10.46484,1.1367 c 5.98103,15.84697 -5.15808,20.66305 0,0 z m -76.71289,1.961 c 27.74204,46.34958 -26.78501,36.7993 0,0 z m 43.54492,1.3437 c 0.38649,1.90413 -5.13748,1.19595 0,0 z m -1.01758,1.5567 c -5.29897,6.21722 -6.96439,-0.276 0,0 z m -98.3125,0.051 c 31.18042,3.24848 -37.85463,15.09475 0,0 z m 145.20313,0.7364 c 16.28536,18.12432 -0.47437,19.67101 0,0 z m -45.42579,0.055 c 2.55439,19.88767 -6.01464,8.53298 0,0 z m 41.69922,0.7011 c 7.84997,11.35685 -5.51814,13.06674 0,0 z m 47.51953,0.5313 c 2.94744,-0.78791 -1.08175,6.95973 0,0 z m -87.63867,0.6953 c 31.28961,6.80231 -5.14846,41.5146 0,0 z m 16.47852,1.1816 c 5.13284,1.82437 -3.6278,9.52679 0,0 z m -21.88477,0.834 c 5.06176,5.41208 1.78176,20.13975 0,0 z m -121.40039,1.0664 c -10.02663,0.73749 -2.56623,1.83804 0,0 z m -4.72851,0.9629 c -8.3919,-2.41341 -1.23238,2.78443 0,0 z m 220.88476,0.1602 c 20.96735,5.89473 -0.91984,26.24702 0,0 z m -46.14844,3.0293 c 16.35304,28.61483 -9.4518,7.44711 3.30664,10.0761 -4.65069,-0.9541 -5.91494,-6.90698 -3.30664,-10.0761 z m -13.1875,1.8105 c 7.16906,-0.4385 -2.35943,5.5619 0,0 z m 6.72657,0.9258 c 7.65411,-5.23392 -2.91015,21.46856 0,0 z m -37.69532,2.6191 c 11.65967,2.15504 1.128,16.22643 0,0 z m -56.05859,0.5039 c -0.23917,3.84605 -3.98171,1.57564 0,0 z m -54.60156,1.1055 c -0.70554,18.93636 -8.29937,0.0518 0,0 z m 55.18164,1.0254 c 3.54729,2.20412 -1.96463,3.35412 0,0 z m 88.0918,0.2148 c 13.14924,29.04946 -21.5403,50.27887 0,0 z m -90.93165,0.1231 c -3.96079,10.58428 -11.51096,5.33547 0,0 z m 2.03907,1.9687 c 1.46473,3.27248 -7.11969,3.4331 0,0 z m 94.51953,0.3672 c 27.35344,19.79443 -17.31836,39.98347 -0.73828,25.9981 0.0722,-5.90834 1.53395,-16.99944 0.73828,-25.9981 z m -40.95313,0.4375 c -7.86934,2.566 0.11016,2.19088 0,0 z m -2.94336,1.7852 c -6.5027,2.68288 -6.4326,10.54417 0,0 z m -5.59375,5.6816 c -0.222,-0.0977 -0.51162,0.59879 0,0 z m -0.27734,0.1934 c 0.50709,10.76098 2.16342,11.59709 0,0 z m 54.74219,-6.9863 c 2.35968,2.93629 -0.73586,2.49667 0,0 z m -97.29492,1.0351 c 25.90507,22.05595 -6.2104,74.54675 -10.4944,23.04128 7.34311,-5.82706 5.71881,-18.66772 10.4944,-23.04128 z m -3.78321,1.9336 c 0.40563,30.26104 -25.11623,25.52698 0,0 z m 161.47461,0.4395 c 2.80169,-0.59239 -0.089,3.82244 0,0 z m -168.02539,1.1699 c 1.33606,1.81554 -3.56863,2.0072 0,0 z m 110.10938,5.043 c 2.43731,2.99343 -1.02904,10.5058 0,0 z m -63.22657,1.7089 c -1.99436,3.25601 1.25109,0.81741 0,0 z m -0.28906,1.5352 c -5.11344,6.12302 4.46195,11.06036 0,0 z m 65.38867,3.043 c 3.50443,0.87978 -1.766,8.5278 0,0 z m 5.06836,1.4043 c 31.27032,16.18963 -2.10579,28.19925 0,0 z m -2.01562,2.3183 c -0.10375,4.26893 -2.11601,1.65355 0,0 z m -3.48438,2.9024 c 1.35757,8.82708 -9.23269,3.34389 0,0 z m -116.69726,0.2382 c 1.93736,9.25153 -13.04585,3.01012 0,0 z m 119.52343,0.5899 c 0.12058,12.11366 -6.87578,6.62286 0,0 z m -2.67968,1.9805 c 4.01574,13.51953 -11.27073,-0.31462 0,0 z m -116.68164,1.2207 c 26.25915,16.30552 4.9543,59.21573 2.04882,64.6113 -5.58949,-22.76191 -18.98983,-46.28053 -2.04882,-64.6113 z m -6.73438,20.5683 c 1.7974,2.61622 8.94454,4.68742 0,0 z m 117.88867,-19.3808 c 11.03709,8.6832 -9.90871,9.75019 0,0 z m -15.69531,0.1386 c 10.23836,17.99521 -18.61625,14.95074 0,0 z m -103.67383,0.7793 c 7.68007,22.6573 -18.77769,8.03823 0,0 z m 107.58789,0.7227 c 14.91015,25.1152 9.13586,-6.81262 16.39649,29.2012 -11.3804,35.69293 -18.93028,-17.92572 -16.39649,-29.2012 z m 15.15039,4.8086 c 2.91502,7.81718 -3.05702,0.85833 0,0 z m 58.89258,1.1777 c -0.5409,0.0388 -0.19642,1.50391 0,0 z m -0.27148,0.5977 0.0273,7.0468 z m 0.0273,7.0468 c -0.0665,0.26411 0.41145,0.86636 0,0 z m -58.23633,-3.0996 c 14.96865,1.0605 -4.77081,14.35511 0,0 z m 0.66211,7.5176 c 9.26187,4.02834 1.38924,15.67866 0,0 z m -0.19922,6.7891 c 9.2824,2.18457 -1.53028,6.97148 0,0 z m 3.18164,4.748 c 0.97217,6.00983 -7.58573,-0.52994 0,0 z m 142.01172,1.7344 c 13.51018,5.24978 -9.20056,18.61492 0,0 z m -155.07812,12.957 c 7.09283,10.41068 -12.50218,7.7595 0,0 z m 155.41797,3.1973 c -5.40851,34.33708 -12.00023,2.16247 0,0 z m -156.14063,5.2363 c 9.07416,35.39312 -31.69424,46.83878 -12.01758,4.4412 22.00771,-13.4214 3.44166,32.86236 12.01758,-4.4412 z m 147.48828,0.8242 c 8.15544,6.37372 -2.56512,3.01394 0,0 z m 2.44727,7.3379 c 2.05444,2.47552 -3.4103,1.3643 0,0 z m 0.0195,9.7266 c -0.70408,5.99457 -2.12896,6.79598 0,0 z m -1.75977,6.0918 c 3.60762,8.33206 -11.80234,5.11369 0,0 z m -1.69921,0.8086 -2.78321,1.7207 z m 3.23632,2.0293 c 15.7197,12.36581 -11.96405,6.45689 0,0 z m -176.81836,0.07 -1.35156,1.9082 z m 28.04883,0.045 c -3.978,15.67131 -20.36632,4.25735 0,0 z m -98.84375,3.6817 c 9.72742,14.23707 -6.90487,26.59925 0,0 z m -1.24804,0.1562 c 3.43935,17.27646 -8.23536,12.89416 0,0 z m 244.39062,0.1133 c 12.67088,6.75617 -2.67207,7.84014 0,0 z m 3.11133,7.3789 0.36719,2.7129 z m -179.29883,1.1719 c 2.27047,6.42026 -5.76857,3.62116 0,0 z m -70.26367,22.0078 c 3.87768,46.11514 -27.32493,41.95609 0,0 z m -68.15234,13.8476 c -9.71311,14.4737 -30.64961,37.92501 -6.71141,12.39407 2.68505,-3.92013 3.69359,-8.66655 6.71141,-12.39407 z m 340.95898,20.1895 c 3.637,2.18036 -2.53961,5.06863 0,0 z m -64.36328,41.0469 c -0.0434,0.0951 0.27857,0.16704 0,0 z m 0.0918,0.1 c 3.79091,21.05476 -2.5355,36.78864 7.53342,60.75389 -17.39201,11.36401 -6.9793,48.96189 -4.08399,68.5351 1.34677,1.82029 -3.53107,-26.38008 -3.4082,-31.582 4.29362,-26.45571 14.88423,-51.04386 -1.24609,-72.82619 6.93469,-7.51819 16.31801,-17.5238 1.20486,-24.8808 z m 100.08984,-0.074 c 8.49482,14.21742 -6.19384,14.79891 0,0 z m -1.25,11.8554 c -0.27589,0.36453 0.79989,0.56383 0,0 z m 0.22461,0.3516 c 3.95067,4.57219 4.54119,3.18107 0,0 z m -89.78321,48.26949 c -7.82278,32.10911 -15.84393,8.56345 0,0 z m -8.94726,22.9863 c 2.10625,21.70493 -5.74357,8.6818 0,0 z" />
</svg>
